<?xml version="1.0" encoding="utf-8"?>
<!-- Generator: Adobe Illustrator 16.0.4, SVG Export Plug-In . SVG Version: 6.00 Build 0)  -->
<!DOCTYPE svg PUBLIC "-//W3C//DTD SVG 1.1//EN" "http://www.w3.org/Graphics/SVG/1.1/DTD/svg11.dtd">
<svg version="1.1" id="Lines" xmlns="http://www.w3.org/2000/svg" xmlns:xlink="http://www.w3.org/1999/xlink" x="0px" y="0px"
	 width="595.28px" height="841.89px" viewBox="0 0 595.28 841.89" enable-background="new 0 0 595.28 841.89" xml:space="preserve">
<path fill="none" stroke="#004080" stroke-linecap="round" stroke-linejoin="round" d="M1.207,507.401
	c0-163.465,0-326.929,0-490.394C1.207,7.615,8.822,0,18.215,0C126.688,0,235.16,0,343.632,0c9.393,0,17.008,7.615,17.008,17.008
	c0,163.464,0,326.929,0,490.394c0,9.393-7.615,17.008-17.009,17.008c-108.472,0-216.944,0-325.417,0
	C8.822,524.409,1.207,516.794,1.207,507.401z"/>
<path fill="none" stroke="#FF0000" stroke-linecap="round" stroke-linejoin="round" d="M23.884,507.401
	c0,3.131-2.538,5.669-5.669,5.669c-3.131,0-5.669-2.539-5.669-5.669c0-3.131,2.538-5.669,5.669-5.669
	C21.346,501.732,23.884,504.27,23.884,507.401z M23.884,17.008c0-3.131-2.538-5.669-5.669-5.669c-3.131,0-5.669,2.538-5.669,5.669
	c0,3.131,2.538,5.669,5.669,5.669C21.346,22.677,23.884,20.139,23.884,17.008z M23.884,262.205c0-3.131-2.538-5.669-5.669-5.669
	c-3.131,0-5.669,2.539-5.669,5.669s2.538,5.669,5.669,5.669C21.346,267.874,23.884,265.335,23.884,262.205z M337.963,262.205
	c0,3.131,2.538,5.669,5.669,5.669c3.131,0,5.669-2.539,5.669-5.669s-2.538-5.669-5.669-5.669
	C340.501,256.535,337.963,259.074,337.963,262.205z M337.963,507.401c0,3.131,2.538,5.669,5.669,5.669
	c3.132,0,5.67-2.539,5.67-5.669c0-3.131-2.538-5.669-5.67-5.669C340.501,501.732,337.963,504.27,337.963,507.401z M343.632,22.677
	c3.131,0,5.669-2.539,5.669-5.669c0-3.131-2.538-5.669-5.669-5.669c-3.131,0-5.669,2.538-5.669,5.669
	C337.963,20.139,340.501,22.677,343.632,22.677z M180.924,425.197c15.655,0,28.346-12.691,28.346-28.347
	s-12.691-28.347-28.346-28.347s-28.346,12.691-28.346,28.347S165.269,425.197,180.924,425.197z M223.443,510.236h28.347v-7.087
	l-28.347,0V510.236z M49.396,21.26l0,28.346h7.087V21.26H49.396z M49.396,77.953v28.347h7.087V77.953H49.396z M49.396,134.646
	v28.347h7.086v-28.347H49.396z M49.395,248.031v28.347h7.086v-28.347H49.395z M49.396,191.338l0,28.347h7.087v-28.347H49.396z
	 M49.395,361.417v28.347h7.087v-28.347H49.395z M49.395,304.724l0,28.347h7.087v-28.347H49.395z M49.395,474.803v28.347h7.086
	v-28.347H49.395z M49.395,418.11v28.347h7.086l0-28.347H49.395z M305.365,418.11v28.347h7.087V418.11H305.365z M305.366,474.803
	v28.347h7.086v-28.347H305.366z M305.366,304.724v28.347h7.087l0-28.347H305.366z M305.365,361.417v28.347h7.087v-28.347H305.365z
	 M305.365,191.338v28.347h7.086v-28.347H305.365z M305.366,248.031v28.347h7.086v-28.347H305.366z M305.365,134.646l0,28.347h7.086
	v-28.347H305.365z M305.365,77.953v28.347h7.087V77.953H305.365z M305.365,21.26v28.346h7.087V21.26H305.365z M223.443,21.26h28.347
	v-7.086h-28.347V21.26z M166.75,21.26h28.347v-7.086l-28.347,0V21.26z M110.058,21.259l28.346,0l0-7.087h-28.347V21.259z
	 M110.058,510.236h28.347l0-7.087h-28.346V510.236z M166.75,510.236h28.347v-7.086H166.75V510.236z M151.16,165.525
	c-2.505,0-4.536,2.031-4.536,4.536s2.031,4.535,4.536,4.535c2.504,0,4.535-2.03,4.535-4.535S153.665,165.525,151.16,165.525z
	 M191.878,198.104c1.252,2.169,4.026,2.913,6.195,1.66c2.169-1.252,2.913-4.026,1.66-6.196c-1.252-2.169-4.026-2.913-6.195-1.66
	S190.625,195.935,191.878,198.104z M162.114,193.569c-1.252,2.169-0.509,4.943,1.66,6.196c2.169,1.252,4.943,0.509,6.196-1.66
	c1.252-2.169,0.509-4.943-1.66-6.196S163.367,191.4,162.114,193.569z M169.97,142.017c-1.252-2.169-4.026-2.913-6.196-1.66
	c-2.169,1.252-2.912,4.026-1.66,6.195c1.253,2.169,4.026,2.913,6.196,1.66S171.222,144.186,169.97,142.017z M199.733,146.552
	c1.252-2.169,0.509-4.943-1.66-6.195c-2.169-1.252-4.943-0.509-6.195,1.66c-1.252,2.169-0.509,4.943,1.66,6.195
	S198.481,148.721,199.733,146.552z M210.688,174.596c2.505,0,4.536-2.03,4.536-4.535s-2.031-4.536-4.536-4.536
	s-4.536,2.031-4.536,4.536S208.183,174.596,210.688,174.596z M197.932,170.061c0-9.393-7.615-17.008-17.008-17.008
	s-17.008,7.615-17.008,17.008s7.615,17.008,17.008,17.008S197.932,179.454,197.932,170.061z"/>
</svg>
