<?xml version="1.0" encoding="utf-8"?>
<!-- Generator: Adobe Illustrator 16.0.4, SVG Export Plug-In . SVG Version: 6.00 Build 0)  -->
<!DOCTYPE svg PUBLIC "-//W3C//DTD SVG 1.1//EN" "http://www.w3.org/Graphics/SVG/1.1/DTD/svg11.dtd">
<svg version="1.1" id="Lines" xmlns="http://www.w3.org/2000/svg" xmlns:xlink="http://www.w3.org/1999/xlink" x="0px" y="0px"
	 width="595.28px" height="841.89px" viewBox="0 0 595.28 841.89" enable-background="new 0 0 595.28 841.89" xml:space="preserve">
<path fill="none" stroke="#004080" stroke-linecap="round" stroke-linejoin="round" d="M28.347,2.667v7.087h28.346V2.667h28.346
	v7.087h28.347V2.667h28.347v7.087h28.346V2.667h28.346v7.087h28.347V2.667h28.347v7.087h28.346V2.667h28.347v89.797H0V2.667H28.347z
	 M0,99.134v89.797h311.811V99.134h-28.347v7.086h-28.346v-7.086h-28.347v7.086h-28.347v-7.086h-28.346v7.086h-28.346v-7.086h-28.347
	v7.086H85.039v-7.086H56.693v7.086H28.347v-7.086H0z M0,438.558c0,47.244,0,94.488,0,141.732c0,27.609,20.488,50.931,47.867,54.486
	c27.379,3.556,53.145-13.758,60.198-40.451c11.223-42.474,22.445-84.948,33.667-127.421c0-9.449,0-18.897,0-28.347
	c-3.923,0-7.847,0-11.77,0c0-2.362,0-4.724,0-7.086c-7.88,0-15.759,0-23.639,0c0,2.362,0,4.724,0,7.086c-7.879,0-15.759,0-23.639,0
	c0-2.362,0-4.724,0-7.086c-7.879,0-15.759,0-23.639,0c0,2.362,0,4.724,0,7.086c-7.879,0-15.759,0-23.639,0c0-2.362,0-4.724,0-7.086
	c-7.879,0-15.759,0-23.639,0c0,2.362,0,4.724,0,7.086C7.847,438.558,3.923,438.558,0,438.558z M0,305.488h213.724V195.6H0V305.488z
	 M0,422.045h213.724V312.157H0V422.045z"/>
<path fill="none" stroke="#FF0000" stroke-linecap="round" stroke-linejoin="round" d="M297.638,33.393h7.087v28.346h-7.087V33.393z
	 M209.055,61.739h7.087V33.393h-7.087V61.739z M95.669,61.739h7.087V33.393h-7.087V61.739z M7.086,61.739h7.086V33.393H7.086V61.739
	z M7.086,158.205h7.086v-28.346H7.086V158.205z M95.669,158.205h7.087v-28.346h-7.087V158.205z M209.055,158.205h7.087v-28.346
	h-7.087V158.205z M297.638,158.205h7.087v-28.346h-7.087V158.205z M127.56,452.731h-7.087l0,28.346h7.087L127.56,452.731z
	 M21.26,452.731h-7.086v28.346h7.086V452.731z M54.944,597.298c9.393,0,17.008-7.614,17.008-17.008
	c0-9.393-7.615-17.008-17.008-17.008c-9.394,0-17.008,7.615-17.008,17.008C37.937,589.684,45.551,597.298,54.944,597.298z
	 M50.409,610.054c0,2.504,2.031,4.535,4.536,4.535s4.535-2.031,4.535-4.535c0-2.505-2.03-4.536-4.535-4.536
	S50.409,607.549,50.409,610.054z M78.453,599.1c2.169,1.252,4.943,0.509,6.195-1.66c1.252-2.169,0.509-4.943-1.66-6.196
	c-2.169-1.252-4.943-0.509-6.196,1.66S76.283,597.848,78.453,599.1z M82.988,569.336c2.169-1.252,2.912-4.026,1.66-6.195
	s-4.026-2.913-6.195-1.66s-2.913,4.026-1.66,6.195C78.045,569.845,80.819,570.588,82.988,569.336z M31.436,561.48
	c-2.169-1.252-4.943-0.509-6.195,1.66c-1.253,2.169-0.509,4.943,1.66,6.195c2.169,1.252,4.943,0.509,6.195-1.66
	C34.348,565.507,33.604,562.733,31.436,561.48z M26.9,591.244c-2.169,1.252-2.913,4.026-1.66,6.196
	c1.252,2.169,4.026,2.913,6.195,1.66s2.913-4.026,1.66-6.196S29.069,589.992,26.9,591.244z M59.479,550.526
	c0-2.505-2.03-4.535-4.535-4.535s-4.536,2.03-4.536,4.535s2.031,4.535,4.536,4.535S59.479,553.031,59.479,550.526z M192.464,236.371
	h7.086v-28.347h-7.086V236.371z M192.464,293.063h7.086v-28.347h-7.086V293.063z M151.711,209.773h28.346v-7.086h-28.346V209.773z
	 M33.667,209.773h28.347v-7.086H33.667V209.773z M14.173,236.371h7.086v-28.347h-7.086V236.371z M14.173,293.063h7.086v-28.347
	h-7.086V293.063z M151.711,298.401h28.346v-7.086h-28.346V298.401z M33.667,298.401h28.347v-7.086H33.667V298.401z M33.667,414.958
	h28.346v-7.086H33.667V414.958z M151.711,414.958h28.347v-7.086h-28.347V414.958z M14.173,409.621h7.086v-28.346h-7.086V409.621z
	 M14.173,352.928h7.086v-28.346h-7.086V352.928z M33.667,326.331h28.346v-7.087H33.667V326.331z M151.711,326.331h28.347v-7.087
	h-28.347V326.331z M192.464,409.621h7.087v-28.346h-7.087V409.621z M192.464,352.928h7.087v-28.346h-7.087V352.928z
	 M165.539,346.975c0-3.401,0-6.803,0-10.205c-39.118,0-78.236,0-117.354,0c0,3.401,0,6.803,0,10.205c-4.062,0-8.126,0-12.188,0
	c-3.288,0-5.953,2.665-5.953,5.953s2.665,5.953,5.953,5.953c4.062,0,8.126,0,12.188,0c0,5.48,0,10.96,0,16.441
	c-4.062,0-8.126,0-12.188,0c-3.288,0-5.953,2.665-5.953,5.953s2.665,5.953,5.953,5.953c4.062,0,8.126,0,12.188,0
	c0,3.402,0,6.803,0,10.205c39.118,0,78.236,0,117.354,0c0-3.401,0-6.803,0-10.205c4.063,0,8.126,0,12.189,0
	c3.288,0,5.953-2.665,5.953-5.953s-2.665-5.953-5.953-5.953c-4.063,0-8.126,0-12.189,0c0-5.48,0-10.961,0-16.441
	c4.063,0,8.126,0,12.189,0c3.288,0,5.953-2.666,5.953-5.953s-2.665-5.953-5.953-5.953
	C173.665,346.975,169.602,346.975,165.539,346.975z"/>
</svg>
