<?xml version="1.0" encoding="utf-8"?>
<!-- Generator: Adobe Illustrator 16.0.4, SVG Export Plug-In . SVG Version: 6.00 Build 0)  -->
<!DOCTYPE svg PUBLIC "-//W3C//DTD SVG 1.1//EN" "http://www.w3.org/Graphics/SVG/1.1/DTD/svg11.dtd">
<svg version="1.1" id="Lines" xmlns="http://www.w3.org/2000/svg" xmlns:xlink="http://www.w3.org/1999/xlink" x="0px" y="0px"
	 width="595.28px" height="841.89px" viewBox="0 0 595.28 841.89" enable-background="new 0 0 595.28 841.89" xml:space="preserve">
<path fill="none" stroke="#004080" stroke-linecap="round" stroke-linejoin="round" d="M144.85,139.174v28.347h-7.086v28.346h7.086
	v28.346h-7.086v28.347h7.086v28.347h-7.086v12.054H7.383v-12.054H0V252.56h7.086v-28.347H0v-28.346h7.086v-28.346H0v-28.347h7.086
	v-22.617h130.692v22.617H144.85z M7.086,318.046v28.347H0v28.347h7.087v28.346H0v18.466h144.567v-18.466h-7.087v-28.346h7.087
	v-28.347h-7.087v-28.347h7.087V299.63H0v18.416H7.086z M61.794,428.221C27.666,428.221,0,455.888,0,490.017
	c0,34.128,27.667,61.795,61.795,61.795c34.129,0,61.796-27.667,61.796-61.795C123.59,455.888,95.923,428.221,61.794,428.221z
	 M0,40.771h7.086v28.346H0v28.347h7.086v12.424h113.386V97.464h7.086V69.117h-7.086V40.771h7.086V12.424h-7.086V0H7.086v12.424H0
	V40.771z"/>
<path fill="none" stroke="#FF0000" stroke-linecap="round" stroke-linejoin="round" d="M80.788,260.93c-5.48,0-10.961,0-16.442,0
	c0,3.939,0,7.878,0,11.817c0,0.124,0,0.248,0,0.372c0,3.288-2.665,5.953-5.952,5.953c-3.288,0-5.953-2.666-5.953-5.953
	c0-4.063,0-8.126,0-12.189c-3.397,0-6.794,0-10.191,0c0-39.242,0-78.484,0-117.727c3.397,0,6.794,0,10.191,0
	c0-3.939,0-7.877,0-11.817c0-3.287,2.665-5.952,5.953-5.952c3.287,0,5.952,2.665,5.952,5.952c0,3.939,0,7.878,0,11.817
	c5.481,0,10.961,0,16.442,0c0-3.939,0-7.877,0-11.817c0-3.287,2.665-5.952,5.952-5.952c3.288,0,5.953,2.665,5.953,5.952
	c0,3.939,0,7.878,0,11.817c3.397,0,6.794,0,10.191,0c0,39.242,0,78.484,0,117.727c-3.397,0-6.794,0-10.191,0
	c0,4.063,0,8.126,0,12.189c0,3.288-2.665,5.953-5.953,5.953c-3.287,0-5.952-2.666-5.952-5.953c0-0.124,0-0.248,0-0.372
	C80.788,268.808,80.788,264.869,80.788,260.93z M72.283,312.402c-26.613,0-48.188,21.575-48.188,48.189s21.575,48.189,48.188,48.189
	c26.614,0,48.189-21.575,48.189-48.189S98.897,312.402,72.283,312.402z M61.794,473.009c-9.393,0-17.008,7.614-17.008,17.008
	c0,9.393,7.615,17.008,17.008,17.008c9.394,0,17.008-7.615,17.008-17.008C78.802,480.624,71.188,473.009,61.794,473.009z
	 M66.33,460.253c0-2.505-2.031-4.536-4.536-4.536s-4.535,2.031-4.535,4.536s2.03,4.535,4.535,4.535S66.33,462.758,66.33,460.253z
	 M38.286,471.208c-2.169-1.253-4.943-0.51-6.196,1.66c-1.252,2.169-0.509,4.942,1.66,6.195c2.169,1.252,4.943,0.509,6.196-1.66
	S40.456,472.459,38.286,471.208z M33.75,500.971c-2.169,1.252-2.912,4.026-1.66,6.195c1.253,2.169,4.026,2.912,6.196,1.66
	c2.169-1.253,2.913-4.026,1.66-6.195C38.694,500.461,35.92,499.718,33.75,500.971z M85.303,508.827
	c2.169,1.252,4.943,0.509,6.195-1.66c1.253-2.169,0.509-4.943-1.66-6.195c-2.169-1.253-4.943-0.51-6.195,1.66
	C82.39,504.8,83.134,507.574,85.303,508.827z M89.838,479.063c2.169-1.253,2.913-4.026,1.66-6.195
	c-1.252-2.17-4.026-2.913-6.195-1.66c-2.169,1.252-2.913,4.026-1.66,6.195C84.896,479.572,87.669,480.315,89.838,479.063z
	 M57.259,519.781c0,2.505,2.03,4.535,4.535,4.535s4.536-2.03,4.536-4.535s-2.031-4.535-4.536-4.535S57.259,517.276,57.259,519.781z
	 M91.823,43.99c2.169-1.252,2.913-4.026,1.66-6.196s-4.026-2.913-6.195-1.66c-2.169,1.252-2.913,4.026-1.66,6.195
	C86.88,44.499,89.654,45.242,91.823,43.99z M87.288,73.754c2.169,1.252,4.943,0.509,6.195-1.66s0.509-4.943-1.66-6.195
	c-2.169-1.253-4.943-0.509-6.195,1.66C84.375,69.728,85.119,72.501,87.288,73.754z M35.735,65.898
	c-2.169,1.252-2.912,4.026-1.66,6.195c1.253,2.169,4.026,2.913,6.195,1.66c2.17-1.252,2.913-4.026,1.66-6.195
	C40.679,65.389,37.904,64.646,35.735,65.898z M40.271,36.135c-2.169-1.253-4.942-0.51-6.195,1.66
	c-1.252,2.169-0.509,4.943,1.66,6.196c2.169,1.252,4.943,0.509,6.195-1.66C43.184,40.161,42.44,37.387,40.271,36.135z
	 M63.779,37.937c-9.393,0-17.008,7.614-17.008,17.008c0,9.393,7.615,17.008,17.008,17.008c9.394,0,17.008-7.615,17.008-17.008
	C80.787,45.551,73.173,37.937,63.779,37.937z M59.244,84.708c0,2.505,2.03,4.535,4.535,4.535s4.535-2.03,4.535-4.535
	s-2.03-4.536-4.535-4.536S59.244,82.203,59.244,84.708z M68.314,25.181c0-2.505-2.03-4.536-4.535-4.536s-4.535,2.031-4.535,4.536
	s2.03,4.535,4.535,4.535S68.314,27.686,68.314,25.181z M49.606,102.802h28.346v-7.087H49.606V102.802z M49.606,14.173h28.346V7.087
	H49.606V14.173z"/>
</svg>
