<?xml version="1.0" encoding="utf-8"?>
<!-- Generator: Adobe Illustrator 16.0.4, SVG Export Plug-In . SVG Version: 6.00 Build 0)  -->
<!DOCTYPE svg PUBLIC "-//W3C//DTD SVG 1.1//EN" "http://www.w3.org/Graphics/SVG/1.1/DTD/svg11.dtd">
<svg version="1.1" id="Lines" xmlns="http://www.w3.org/2000/svg" xmlns:xlink="http://www.w3.org/1999/xlink" x="0px" y="0px"
	 width="595.279px" height="841.89px" viewBox="0 0 595.279 841.89" enable-background="new 0 0 595.279 841.89"
	 xml:space="preserve">
<path fill="none" stroke="#FF0000" stroke-linecap="round" stroke-linejoin="round" d="M187.412,241.796
	c-7.827,0-14.173-6.346-14.173-14.173c0-64.063,0-128.126,0-192.189c0-7.828,6.346-14.173,14.173-14.173c14.173,0,28.347,0,42.52,0
	c7.827,0,14.174,6.345,14.174,14.173c0,64.063,0,128.126,0,192.189c0,7.827-6.347,14.173-14.174,14.173
	C215.759,241.796,201.585,241.796,187.412,241.796z"/>
<path fill="none" stroke="#004080" stroke-linecap="round" stroke-linejoin="round" d="M159.066,263.056v-7.086h-14.174v-53.576
	h-7.087v-28.346h7.087v-28.347h-7.087v-28.347h7.087V89.008h-7.087V60.66h7.087V7.086h14.174V0h28.347v7.087h28.347V0h28.347v7.087
	h14.174v53.574h7.086v28.348h-7.086v28.346h7.086v28.347h-7.086v28.347h7.086v28.346h-7.086v53.576h-14.174v7.086h-28.347v-7.086
	h-28.347v7.086L159.066,263.056L159.066,263.056z M49.607,263.057v-7.087h28.347v7.087h28.346v-7.087h14.174v-53.575h7.086v-28.347
	h-7.086v-28.347h7.086v-28.346h-7.086V89.008h7.086V60.661h-7.086V7.087l-14.174-0.001V0H77.953v7.087H49.607V0H21.26v7.086
	L7.087,7.087v53.574H0v28.347h7.087v28.347H0v28.346h7.087v28.347H0v28.347h7.087v53.575H21.26v7.087H49.607L49.607,263.057z"/>
</svg>
