<?xml version="1.0" encoding="utf-8"?>
<!-- Generator: Adobe Illustrator 16.0.4, SVG Export Plug-In . SVG Version: 6.00 Build 0)  -->
<!DOCTYPE svg PUBLIC "-//W3C//DTD SVG 1.1//EN" "http://www.w3.org/Graphics/SVG/1.1/DTD/svg11.dtd">
<svg version="1.1" id="Lines" xmlns="http://www.w3.org/2000/svg" xmlns:xlink="http://www.w3.org/1999/xlink" x="0px" y="0px"
	 width="595.28px" height="841.89px" viewBox="0 0 595.28 841.89" enable-background="new 0 0 595.28 841.89" xml:space="preserve">
<path fill="none" stroke="#004080" stroke-linecap="round" stroke-linejoin="round" d="M1.848,302.821v-89.797h75.624v89.797H1.848z
	 M1.848,40.771h7.086v28.346H1.848v28.347h7.086v12.424H122.32V97.464h7.086V69.117h-7.086V40.771h7.086V12.425h-7.086V0H8.934
	v12.425H1.848V40.771z M173.938,175.629v-28.347h-7.087v-30.725h-23.639v7.086h-28.346v-7.086H91.228v30.725h-7.086v28.347h7.086
	v30.725h75.624v-30.725H173.938z M173.938,272.095v-28.347h-7.087v-30.725h-23.639v7.087h-28.347v-7.087H91.228v30.725h-7.086
	v28.347h7.086v30.726h75.624v-30.726H173.938z M77.472,206.354v-89.797H1.848v89.797H77.472z M91.645,465.028v-28.346h-7.086
	v-30.725H60.92v7.086H32.574v-7.086H8.935v30.725H1.848v28.346h7.087v30.726h75.624v-30.726H91.645z M91.645,368.562v-28.346h-7.086
	V309.49H60.92v7.086H32.574v-7.086H8.935v30.725H1.848v28.346h7.087v30.726h75.624v-30.726H91.645z"/>
<path fill="none" stroke="#FF0000" stroke-linecap="round" stroke-linejoin="round" d="M56.667,257.922
	c0,9.393-7.614,17.008-17.008,17.008c-9.393,0-17.008-7.615-17.008-17.008c0-9.394,7.615-17.008,17.008-17.008
	C49.053,240.915,56.667,248.529,56.667,257.922z M44.195,228.159c0-2.505-2.031-4.536-4.536-4.536s-4.535,2.031-4.535,4.536
	s2.03,4.535,4.535,4.535S44.195,230.664,44.195,228.159z M16.152,239.113c-2.17-1.252-4.943-0.509-6.196,1.66
	c-1.252,2.169-0.509,4.943,1.66,6.195c2.17,1.252,4.943,0.509,6.196-1.66C19.064,243.139,18.321,240.365,16.152,239.113z
	 M11.616,268.876c-2.169,1.252-2.912,4.026-1.66,6.195c1.253,2.169,4.026,2.913,6.196,1.66c2.169-1.252,2.912-4.026,1.66-6.195
	C16.559,268.367,13.786,267.624,11.616,268.876z M63.168,276.732c2.169,1.252,4.943,0.509,6.195-1.66
	c1.253-2.169,0.509-4.943-1.66-6.195c-2.169-1.252-4.943-0.509-6.195,1.66C60.256,272.706,61,275.479,63.168,276.732z
	 M67.704,246.968c2.169-1.252,2.913-4.026,1.66-6.195c-1.252-2.169-4.026-2.913-6.195-1.66c-2.169,1.252-2.913,4.026-1.66,6.195
	C62.761,247.478,65.535,248.221,67.704,246.968z M35.125,287.686c0,2.505,2.03,4.536,4.535,4.536s4.536-2.031,4.536-4.536
	s-2.031-4.535-4.536-4.535S35.125,285.181,35.125,287.686z M51.454,102.802H79.8v-7.087H51.454V102.802z M51.454,14.174H79.8V7.087
	H51.454V14.174z M106.362,161.456c0,12.524,10.153,22.677,22.677,22.677s22.677-10.153,22.677-22.677s-10.152-22.677-22.677-22.677
	S106.362,148.932,106.362,161.456z M106.362,257.922c0,12.524,10.153,22.677,22.677,22.677s22.677-10.152,22.677-22.677
	s-10.153-22.678-22.677-22.678S106.362,245.398,106.362,257.922z M39.66,144.448c-9.393,0-17.008,7.614-17.008,17.008
	c0,9.393,7.615,17.008,17.008,17.008c9.394,0,17.008-7.615,17.008-17.008C56.667,152.062,49.053,144.448,39.66,144.448z
	 M44.195,131.692c0-2.505-2.031-4.536-4.536-4.536s-4.535,2.031-4.535,4.536s2.03,4.535,4.535,4.535S44.195,134.197,44.195,131.692z
	 M16.152,142.646c-2.17-1.252-4.943-0.509-6.196,1.66c-1.252,2.169-0.509,4.943,1.66,6.195c2.17,1.252,4.943,0.509,6.196-1.66
	C19.064,146.673,18.321,143.898,16.152,142.646z M11.616,172.41c-2.169,1.252-2.912,4.026-1.66,6.195
	c1.253,2.169,4.026,2.913,6.196,1.66c2.169-1.252,2.912-4.026,1.66-6.195C16.559,171.901,13.786,171.158,11.616,172.41z
	 M63.168,180.266c2.169,1.252,4.943,0.509,6.195-1.66c1.253-2.169,0.509-4.943-1.66-6.195c-2.169-1.252-4.943-0.509-6.195,1.66
	C60.256,176.239,61,179.013,63.168,180.266z M67.704,150.502c2.169-1.252,2.913-4.026,1.66-6.195
	c-1.252-2.169-4.026-2.913-6.195-1.66c-2.169,1.252-2.913,4.026-1.66,6.195C62.761,151.011,65.535,151.754,67.704,150.502z
	 M35.125,191.22c0,2.505,2.03,4.536,4.535,4.536s4.536-2.031,4.536-4.536s-2.031-4.535-4.536-4.535S35.125,188.715,35.125,191.22z
	 M74.791,439.901c2.17-1.252,2.913-4.026,1.66-6.195c-1.252-2.169-4.026-2.913-6.195-1.66c-2.169,1.252-2.913,4.026-1.66,6.195
	C69.848,440.41,72.622,441.153,74.791,439.901z M70.255,469.665c2.169,1.252,4.943,0.509,6.195-1.66
	c1.253-2.169,0.51-4.943-1.66-6.195c-2.169-1.252-4.943-0.509-6.195,1.66C67.343,465.638,68.086,468.412,70.255,469.665z
	 M18.703,461.809c-2.169,1.252-2.912,4.026-1.66,6.195c1.253,2.169,4.026,2.913,6.196,1.66s2.913-4.026,1.66-6.195
	C23.646,461.3,20.873,460.557,18.703,461.809z M23.238,432.045c-2.169-1.252-4.943-0.509-6.196,1.66
	c-1.252,2.169-0.509,4.943,1.66,6.195c2.17,1.252,4.943,0.509,6.196-1.66C26.151,436.072,25.408,433.297,23.238,432.045z
	 M46.747,433.847c-9.393,0-17.008,7.614-17.008,17.008c0,9.393,7.615,17.008,17.008,17.008c9.394,0,17.008-7.615,17.008-17.008
	C63.754,441.461,56.14,433.847,46.747,433.847z M42.211,480.619c0,2.505,2.03,4.536,4.535,4.536s4.536-2.031,4.536-4.536
	s-2.031-4.535-4.536-4.535S42.211,478.114,42.211,480.619z M51.282,421.091c0-2.505-2.031-4.536-4.536-4.536
	s-4.535,2.031-4.535,4.536s2.03,4.535,4.535,4.535S51.282,423.596,51.282,421.091z M74.791,343.435
	c2.17-1.252,2.913-4.026,1.66-6.195c-1.252-2.169-4.026-2.913-6.195-1.66c-2.169,1.252-2.913,4.026-1.66,6.195
	C69.848,343.944,72.622,344.687,74.791,343.435z M70.255,373.198c2.169,1.252,4.943,0.509,6.195-1.66
	c1.253-2.169,0.51-4.943-1.66-6.195c-2.169-1.252-4.943-0.509-6.195,1.66C67.343,369.172,68.086,371.946,70.255,373.198z
	 M18.703,365.343c-2.169,1.252-2.912,4.026-1.66,6.195c1.253,2.169,4.026,2.913,6.196,1.66s2.913-4.026,1.66-6.195
	C23.646,364.833,20.873,364.09,18.703,365.343z M23.238,335.579c-2.169-1.252-4.943-0.509-6.196,1.66
	c-1.252,2.169-0.509,4.943,1.66,6.195c2.17,1.252,4.943,0.509,6.196-1.66C26.151,339.605,25.408,336.831,23.238,335.579z
	 M46.747,337.381c-9.393,0-17.008,7.614-17.008,17.008c0,9.393,7.615,17.008,17.008,17.008c9.394,0,17.008-7.615,17.008-17.008
	C63.754,344.995,56.14,337.381,46.747,337.381z M42.211,384.152c0,2.505,2.03,4.536,4.535,4.536s4.536-2.031,4.536-4.536
	s-2.031-4.535-4.536-4.535S42.211,381.647,42.211,384.152z M51.282,324.625c0-2.505-2.031-4.536-4.536-4.536
	s-4.535,2.031-4.535,4.536s2.03,4.535,4.535,4.535S51.282,327.13,51.282,324.625z"/>
</svg>
