<?xml version="1.0" encoding="utf-8"?>
<!-- Generator: Adobe Illustrator 16.0.4, SVG Export Plug-In . SVG Version: 6.00 Build 0)  -->
<!DOCTYPE svg PUBLIC "-//W3C//DTD SVG 1.1//EN" "http://www.w3.org/Graphics/SVG/1.1/DTD/svg11.dtd">
<svg version="1.1" id="Lines" xmlns="http://www.w3.org/2000/svg" xmlns:xlink="http://www.w3.org/1999/xlink" x="0px" y="0px"
	 width="595.28px" height="841.89px" viewBox="0 0 595.28 841.89" enable-background="new 0 0 595.28 841.89" xml:space="preserve">
<path fill="none" stroke="#FF0000" stroke-linecap="round" stroke-linejoin="round" d="M49.606,503.149v7.087H21.26v-7.087H49.606z
	 M77.953,503.149v7.087h28.347v-7.087H77.953z M21.26,14.173v7.086h28.347v-7.086H21.26z M77.953,14.173v7.086h28.347v-7.086H77.953
	z"/>
<path fill="none" stroke="#004080" stroke-linecap="round" stroke-linejoin="round" d="M127.559,21.26v28.347h-7.087v28.346h7.087
	v28.347h-7.087v28.347h7.087v28.347h-7.087v28.346h7.087v28.347h-7.087v28.347h7.087v28.346h-7.087v28.347h7.087v28.347h-7.087
	v28.347h7.087v28.347h-7.087v28.346h7.087v28.347h-7.087v28.347h7.087v28.347h-7.087v21.26H7.086v-21.26H0v-28.347h7.086v-28.347H0
	v-28.347h7.086v-28.346H0v-28.347h7.086V333.07H0v-28.347h7.086v-28.347H0v-28.346h7.086v-28.347H0v-28.347h7.086v-28.346H0v-28.347
	h7.086v-28.347H0V77.952h7.086V49.606H0V21.26h7.086V0h113.386v21.26H127.559z"/>
<path fill="none" stroke="#FF0000" stroke-linecap="round" stroke-linejoin="round" d="M187.134,503.149v7.087h-28.347v-7.087
	H187.134z M215.48,503.149v7.087h28.347v-7.087H215.48z M158.788,14.173v7.086h28.347v-7.086H158.788z M215.48,14.173v7.087h28.347
	v-7.087H215.48z"/>
<path fill="none" stroke="#004080" stroke-linecap="round" stroke-linejoin="round" d="M265.087,21.26v28.347H258v28.346h7.087
	v28.347H258v28.347h7.087v28.347H258v28.346h7.087v28.347H258v28.347h7.087v28.346H258v28.347h7.087v28.347H258v28.347h7.087v28.347
	H258v28.346h7.087v28.347H258v28.347h7.087v28.347H258v21.26H144.614v-21.26h-7.086v-28.347h7.086v-28.347h-7.086v-28.347h7.086
	v-28.346h-7.086v-28.347h7.086V333.07h-7.086v-28.347h7.086v-28.347h-7.086v-28.346h7.086v-28.347h-7.086v-28.347h7.086v-28.346
	h-7.086v-28.347h7.086v-28.347h-7.086V77.952h7.086V49.606h-7.086V21.26h7.086V0H258v21.26H265.087z"/>
</svg>
