<?xml version="1.0" encoding="utf-8"?>
<!-- Generator: Adobe Illustrator 16.0.4, SVG Export Plug-In . SVG Version: 6.00 Build 0)  -->
<!DOCTYPE svg PUBLIC "-//W3C//DTD SVG 1.1//EN" "http://www.w3.org/Graphics/SVG/1.1/DTD/svg11.dtd">
<svg version="1.1" id="Lines" xmlns="http://www.w3.org/2000/svg" xmlns:xlink="http://www.w3.org/1999/xlink" x="0px" y="0px"
	 width="595.28px" height="841.89px" viewBox="0 0 595.28 841.89" enable-background="new 0 0 595.28 841.89" xml:space="preserve">
<path fill="none" stroke="#004080" stroke-linecap="round" stroke-linejoin="round" d="M0,507.401C0,343.937,0,180.473,0,17.008
	C0,7.615,7.614,0,17.008,0C125.48,0,233.953,0,342.425,0c9.394,0,17.008,7.615,17.008,17.008c0,163.465,0,326.929,0,490.394
	c0,9.394-7.615,17.008-17.008,17.008c-108.472,0-216.945,0-325.417,0C7.614,524.409,0,516.795,0,507.401z"/>
<path fill="none" stroke="#FF0000" stroke-linecap="round" stroke-linejoin="round" d="M242.078,469.134
	c0-6.262,5.077-11.338,11.339-11.338s11.339,5.077,11.339,11.338c0,6.262-5.077,11.339-11.339,11.339
	S242.078,475.396,242.078,469.134z M106.016,480.473c6.262,0,11.338-5.077,11.338-11.339c0-6.262-5.077-11.338-11.338-11.338
	c-6.262,0-11.339,5.077-11.339,11.338C94.677,475.396,99.753,480.473,106.016,480.473z M106.016,66.614
	c6.262,0,11.338-5.077,11.338-11.339c0-6.262-5.077-11.338-11.338-11.338c-6.262,0-11.339,5.077-11.339,11.338
	C94.677,61.538,99.753,66.614,106.016,66.614z M253.417,66.614c6.262,0,11.339-5.077,11.339-11.339
	c0-6.262-5.077-11.338-11.339-11.338s-11.339,5.077-11.339,11.338C242.078,61.538,247.155,66.614,253.417,66.614z M342.425,28.347
	c6.262,0,11.339-5.077,11.339-11.339c0-6.262-5.077-11.339-11.339-11.339c-6.262,0-11.338,5.077-11.338,11.339
	C331.086,23.27,336.163,28.347,342.425,28.347z M17.008,28.347c6.262,0,11.338-5.077,11.338-11.339
	c0-6.262-5.077-11.339-11.338-11.339c-6.262,0-11.339,5.077-11.339,11.339C5.669,23.27,10.746,28.347,17.008,28.347z
	 M17.008,273.543c6.262,0,11.338-5.076,11.338-11.338s-5.077-11.338-11.338-11.338c-6.262,0-11.339,5.076-11.339,11.338
	S10.746,273.543,17.008,273.543z M342.425,273.543c6.262,0,11.339-5.076,11.339-11.338s-5.077-11.338-11.339-11.338
	c-6.262,0-11.338,5.076-11.338,11.338S336.163,273.543,342.425,273.543z M342.425,518.74c6.262,0,11.339-5.076,11.339-11.339
	c0-6.262-5.077-11.338-11.339-11.338c-6.262,0-11.338,5.077-11.338,11.338C331.086,513.664,336.163,518.74,342.425,518.74z
	 M17.008,518.74c6.262,0,11.338-5.076,11.338-11.339c0-6.262-5.077-11.338-11.338-11.338c-6.262,0-11.339,5.077-11.339,11.338
	C5.669,513.664,10.746,518.74,17.008,518.74z"/>
</svg>
