<?xml version="1.0" encoding="utf-8"?>
<!-- Generator: Adobe Illustrator 16.0.4, SVG Export Plug-In . SVG Version: 6.00 Build 0)  -->
<!DOCTYPE svg PUBLIC "-//W3C//DTD SVG 1.1//EN" "http://www.w3.org/Graphics/SVG/1.1/DTD/svg11.dtd">
<svg version="1.1" id="Lines" xmlns="http://www.w3.org/2000/svg" xmlns:xlink="http://www.w3.org/1999/xlink" x="0px" y="0px"
	 width="595.28px" height="841.89px" viewBox="0 0 595.28 841.89" enable-background="new 0 0 595.28 841.89" xml:space="preserve">
<path fill="none" stroke="#004080" stroke-linecap="round" stroke-linejoin="round" d="M225.354,51.06v28.346h7.086v28.347h-7.086
	v22.713H7.086v-22.713H0V79.406h7.086V51.06H0V22.713h7.086V0h218.268v22.713h7.086V51.06H225.354z M47.622,355.569
	C21.321,355.569,0,376.89,0,403.191s21.321,47.622,47.622,47.622s47.621-21.321,47.621-47.622S73.923,355.569,47.622,355.569z
	 M164.521,214.671H7.086v14.173H0v28.346h7.087v14.173h19.62v7.086h23.639v-7.086h23.639v7.086h23.639v-7.086h23.639v7.086H144.9
	v-7.086h19.62V214.671z M164.52,285.12H7.086v14.173H0v28.346h7.086v14.174h19.621v7.086h23.638v-7.086h23.639v7.086h23.639v-7.086
	h23.639v7.086H144.9v-7.086h19.62V285.12z M145.134,137.135H0v28.347h7.087v28.346H0v14.173h145.134v-14.173h-7.087v-28.346h7.087
	V137.135z"/>
<path fill="none" stroke="#FF0000" stroke-linecap="round" stroke-linejoin="round" d="M47.622,428.419
	c2.504,0,4.536,2.03,4.536,4.535s-2.031,4.535-4.536,4.535c-2.505,0-4.536-2.03-4.536-4.535S45.117,428.419,47.622,428.419z
	 M75.666,392.237c2.169-1.252,2.912-4.026,1.659-6.196c-1.252-2.169-4.026-2.913-6.195-1.66c-2.169,1.252-2.912,4.026-1.66,6.195
	C70.723,392.746,73.496,393.489,75.666,392.237z M71.13,422c2.169,1.252,4.943,0.509,6.195-1.66c1.253-2.169,0.51-4.943-1.659-6.195
	c-2.17-1.252-4.943-0.509-6.196,1.66C68.218,417.974,68.961,420.748,71.13,422z M19.578,414.145
	c-2.169,1.252-2.913,4.026-1.66,6.195c1.252,2.169,4.026,2.913,6.195,1.66c2.169-1.252,2.912-4.026,1.66-6.195
	C24.521,413.636,21.747,412.893,19.578,414.145z M24.114,384.381c-2.169-1.253-4.943-0.51-6.195,1.66
	c-1.253,2.169-0.51,4.943,1.66,6.196s4.943,0.509,6.196-1.66C27.026,388.407,26.282,385.633,24.114,384.381z M52.157,373.427
	c0-2.505-2.031-4.536-4.536-4.536c-2.505,0-4.536,2.031-4.536,4.536s2.031,4.535,4.536,4.535
	C50.126,377.962,52.157,375.932,52.157,373.427z M47.622,386.183c-9.393,0-17.008,7.614-17.008,17.008
	c0,9.393,7.615,17.008,17.008,17.008s17.008-7.615,17.008-17.008C64.63,393.797,57.015,386.183,47.622,386.183z"/>
</svg>
