<?xml version="1.0" encoding="utf-8"?>
<!-- Generator: Adobe Illustrator 16.0.4, SVG Export Plug-In . SVG Version: 6.00 Build 0)  -->
<!DOCTYPE svg PUBLIC "-//W3C//DTD SVG 1.1//EN" "http://www.w3.org/Graphics/SVG/1.1/DTD/svg11.dtd">
<svg version="1.1" id="Lines" xmlns="http://www.w3.org/2000/svg" xmlns:xlink="http://www.w3.org/1999/xlink" x="0px" y="0px"
	 width="595.28px" height="841.89px" viewBox="0 0 595.28 841.89" enable-background="new 0 0 595.28 841.89" xml:space="preserve">
<path fill="none" stroke="#004080" stroke-linecap="round" stroke-linejoin="round" d="M1.848,247.565h127.559v21.236h-7.086v28.346
	h7.086v28.347h-7.086v28.347h7.086v28.347h-7.086v28.346h7.086v28.347h-7.086v28.347h7.086v21.235H1.848v-21.235h7.086V438.88H1.848
	v-28.347h7.086v-28.346H1.848v-28.347h7.086v-28.347H1.848v-28.347h7.086v-28.346H1.848V247.565z M1.848,21.235h7.086v28.347H1.848
	v28.347h7.086v28.346H1.848v28.346h7.086v28.347H1.848v28.347h7.086v28.346H1.848v21.236h127.559v-21.236h-7.087v-28.346h7.087
	v-28.347h-7.087v-28.347h7.087v-28.346h-7.087V77.929h7.087V49.582h-7.087V21.235h7.087V0H1.848V21.235z"/>
</svg>
