<?xml version="1.0" encoding="utf-8"?>
<!-- Generator: Adobe Illustrator 16.0.4, SVG Export Plug-In . SVG Version: 6.00 Build 0)  -->
<!DOCTYPE svg PUBLIC "-//W3C//DTD SVG 1.1//EN" "http://www.w3.org/Graphics/SVG/1.1/DTD/svg11.dtd">
<svg version="1.1" id="Lines" xmlns="http://www.w3.org/2000/svg" xmlns:xlink="http://www.w3.org/1999/xlink" x="0px" y="0px"
	 width="595.28px" height="841.89px" viewBox="0 0 595.28 841.89" enable-background="new 0 0 595.28 841.89" xml:space="preserve">
<path fill="none" stroke="#004080" stroke-linecap="round" stroke-linejoin="round" d="M-1.645,229.447
	c2.932-2.932,5.863-5.862,8.794-8.794c1.459,0,2.919,0,4.378,0c0.007-4.716,0.015-9.431,0.022-14.146
	c0-14.08,11.414-25.494,25.494-25.494s25.494,11.415,25.494,25.494c0,4.711,0,9.421,0,14.132
	c20.787-0.007,41.575-0.013,62.362-0.019c0-4.704,0-9.408,0-14.112c0-14.08,11.414-25.494,25.494-25.494
	s25.495,11.414,25.494,25.494c0,4.699,0,9.398,0,14.097c5.909,0,11.817,0,17.726,0c0,6.155,0,12.312,0,18.467
	c2.362,0,4.725,0,7.087,0c0-6.155,0-12.312,0-18.467c6.376,0,12.752,0,19.128,0c1.883,1.917,3.766,3.833,5.649,5.749
	c0,42.464,0,84.927,0,127.39c-40.482,14.43-80.965,28.859-121.447,43.289c-32.294-0.001-64.588-0.001-96.882-0.001
	c-2.931-2.931-5.862-5.862-8.794-8.793C-1.645,335.308-1.645,282.377-1.645,229.447z M246.126,8.501
	c-2.932-2.931-5.863-5.862-8.794-8.793c-32.294,0-64.588,0-96.882,0C99.969,14.137,59.486,28.567,19.004,42.996
	c0,42.463,0,84.926,0,127.389c1.883,1.917,3.766,3.833,5.648,5.749c6.376,0,12.752,0,19.128,0c0-6.156,0-12.311,0-18.467
	c2.362,0,4.725,0,7.087,0c0,6.156,0,12.311,0,18.467c5.908,0,11.817,0,17.726,0c0,4.699,0,9.397,0,14.097
	c0,14.08,11.414,25.494,25.494,25.495c14.08,0,25.494-11.415,25.494-25.495c0-4.704,0-9.408,0-14.112
	c20.788-0.006,41.575-0.012,62.362-0.019c0,4.71,0,9.421,0,14.131c0,14.08,11.414,25.494,25.494,25.494s25.494-11.414,25.495-25.494
	c0.007-4.715,0.015-9.431,0.022-14.146c1.459,0,2.918,0,4.377,0c2.931-2.931,5.862-5.862,8.794-8.793
	C246.126,114.362,246.126,61.431,246.126,8.501z"/>
<path fill="none" stroke="#FF0000" stroke-linecap="round" stroke-linejoin="round" d="M37.044,201.404
	c2.818,0,5.103,2.285,5.103,5.103c0,2.818-2.284,5.103-5.103,5.103s-5.103-2.284-5.103-5.103
	C31.941,203.689,34.226,201.404,37.044,201.404z M145.292,206.508c0,2.818,2.285,5.103,5.103,5.103c2.818,0,5.103-2.284,5.103-5.103
	s-2.284-5.103-5.103-5.103C147.577,201.405,145.292,203.689,145.292,206.508z M94.559,374.415h7.086v-28.347h-7.086V374.415z
	 M200.701,295.764v-28.346h-7.086v28.346H200.701z M200.701,342.527V324.11h-7.087v18.417H200.701z M94.559,261.029h7.087v-28.347
	h-7.087V261.029z M101.645,289.376h-7.087v28.346h7.087V289.376z M146.646,366.796l-2.379-6.675l-26.701,9.518l2.379,6.675
	L146.646,366.796z M186.697,352.52l-2.38-6.675l-13.351,4.759l2.38,6.675L186.697,352.52z M142.837,107.364h7.087V79.017h-7.087
	V107.364z M149.923,135.71h-7.086v28.347h7.086V135.71z M43.781,54.213v18.417h7.087V54.213H43.781z M43.781,100.975v28.347h7.087
	v-28.347H43.781z M149.924,22.324h-7.087v28.347h7.086L149.924,22.324z M99.19,190.232c0-2.818-2.285-5.102-5.103-5.102
	s-5.103,2.284-5.103,5.102s2.285,5.103,5.103,5.103S99.19,193.05,99.19,190.232z M212.541,190.232c0-2.818-2.284-5.103-5.103-5.103
	c-2.817,0-5.102,2.285-5.102,5.103s2.285,5.103,5.102,5.103C210.256,195.335,212.541,193.05,212.541,190.232z M57.786,44.219
	l2.379,6.676l13.351-4.759l-2.379-6.675L57.786,44.219z M97.836,29.944l2.38,6.675l26.701-9.518l-2.379-6.675L97.836,29.944z"/>
</svg>
