<?xml version="1.0" encoding="utf-8"?>
<!-- Generator: Adobe Illustrator 16.0.4, SVG Export Plug-In . SVG Version: 6.00 Build 0)  -->
<!DOCTYPE svg PUBLIC "-//W3C//DTD SVG 1.1//EN" "http://www.w3.org/Graphics/SVG/1.1/DTD/svg11.dtd">
<svg version="1.1" id="Lines" xmlns="http://www.w3.org/2000/svg" xmlns:xlink="http://www.w3.org/1999/xlink" x="0px" y="0px"
	 width="595.28px" height="841.89px" viewBox="0 0 595.28 841.89" enable-background="new 0 0 595.28 841.89" xml:space="preserve">
<path fill="none" stroke="#004080" stroke-linecap="round" stroke-linejoin="round" d="M42.775,397.193
	c-25.906-2.132-44.467-25.936-40.218-51.58c15.62-109.849,31.241-219.698,46.862-329.547c1.188-8.381,8.363-14.61,16.828-14.61
	c2.547,0,5.095,0,7.643,0c9.386,0,16.996,7.609,16.996,16.996c-0.001,111.476-0.001,222.952-0.002,334.428
	C90.884,378.874,68.682,399.324,42.775,397.193z M97.556,40.252c0,111.476-0.001,222.952-0.001,334.428
	c0,9.386,7.609,16.996,16.996,16.996c2.547,0,5.095,0,7.643,0c8.464,0,15.639-6.229,16.828-14.61
	c15.621-109.849,31.241-219.698,46.862-329.547c4.249-25.644-14.312-49.448-40.219-51.58C119.758-6.192,97.556,14.258,97.556,40.252
	z M84.781,426.011c-9.806-16.745-29.339-25.196-48.258-20.879c-18.919,4.317-32.853,20.404-34.425,39.746
	c-1.573,19.341,9.58,37.468,27.553,44.784c17.973,7.316,38.615,2.131,50.997-12.81c25.568,2.076,51.136,4.151,76.704,6.227
	c14.166,1.15,26.54-9.5,27.512-23.679c0.973-14.18-9.831-26.419-24.021-27.214C135.489,430.128,110.135,428.069,84.781,426.011z
	 M264.754,121.288c0.757-9.356-6.214-17.556-15.57-18.312c-9.356-0.758-17.555,6.213-18.313,15.569
	c-9.272,114.534-18.544,229.067-27.816,343.602c-0.757,9.356,6.214,17.555,15.57,18.312c9.356,0.758,17.555-6.213,18.312-15.569
	C246.209,350.355,255.482,235.821,264.754,121.288z M164.574,408.146c-0.757,9.356,6.214,17.556,15.57,18.312
	c9.356,0.758,17.555-6.213,18.313-15.569c9.272-114.534,18.544-229.067,27.816-343.602c0.757-9.356-6.214-17.555-15.57-18.312
	c-9.356-0.758-17.555,6.213-18.312,15.569C183.119,179.079,173.847,293.613,164.574,408.146z"/>
<path fill="none" stroke="#FF0000" stroke-linecap="round" stroke-linejoin="round" d="M63.372,354.275
	c-0.771,9.361-8.983,16.326-18.345,15.556c-9.362-0.77-16.326-8.983-15.557-18.345c0.771-9.361,8.984-16.326,18.346-15.556
	C57.178,336.7,64.143,344.913,63.372,354.275z M53.383,323.588c0.205-2.497-1.652-4.687-4.148-4.892
	c-2.496-0.205-4.687,1.652-4.893,4.148c-0.205,2.496,1.652,4.687,4.148,4.892C50.987,327.942,53.177,326.085,53.383,323.588z
	 M24.535,332.206c-2.06-1.426-4.885-0.913-6.312,1.146c-1.426,2.059-0.912,4.885,1.146,6.311c2.06,1.426,4.885,0.913,6.312-1.146
	C27.107,336.458,26.594,333.632,24.535,332.206z M17.574,361.498c-2.265,1.07-3.233,3.774-2.163,6.039s3.774,3.233,6.039,2.163
	s3.232-3.774,2.162-6.039S19.839,360.427,17.574,361.498z M68.309,373.554c2.06,1.426,4.885,0.913,6.311-1.146
	s0.913-4.885-1.146-6.311c-2.06-1.426-4.885-0.913-6.311,1.146C65.736,369.303,66.249,372.128,68.309,373.554z M75.27,344.263
	c2.265-1.07,3.232-3.774,2.162-6.039s-3.773-3.233-6.038-2.163s-3.233,3.774-2.163,6.039S73.005,345.333,75.27,344.263z
	 M39.461,382.172c-0.206,2.496,1.651,4.687,4.148,4.892c2.496,0.205,4.687-1.652,4.892-4.148s-1.651-4.687-4.148-4.892
	C41.856,377.818,39.666,379.675,39.461,382.172z M78.425,18.452c0-2.505-2.031-4.535-4.535-4.535c-2.505,0-4.536,2.03-4.536,4.535
	c0,2.505,2.031,4.536,4.536,4.536C76.395,22.988,78.425,20.957,78.425,18.452z M77.471,255.109h7.087v-28.346l-7.087,0V255.109z
	 M77.471,198.416h7.087v-28.347h-7.087V198.416z M77.471,141.723h7.087v-28.347h-7.087V141.723z M77.471,85.03h7.087V63.794h-7.087
	V85.03z M77.471,304.691h7.087v-21.235h-7.087V304.691z M15.617,298.976l7.016,1l2.995-21.023l-7.016-1L15.617,298.976z
	 M46.596,81.511l7.017,1l2.994-21.023l-7.016-1L46.596,81.511z M38.601,137.637l7.016,1l3.998-28.063l-7.017-1L38.601,137.637z
	 M30.604,193.763l7.016,1l3.998-28.063l-7.016-0.999L30.604,193.763z M22.609,249.89l7.016,0.999l3.998-28.063l-7.017-1
	L22.609,249.89z M110.015,374.68c0,2.505,2.031,4.535,4.536,4.535c2.504,0,4.535-2.03,4.535-4.535s-2.031-4.536-4.535-4.536
	C112.046,370.145,110.015,372.175,110.015,374.68z M110.97,138.023h-7.086v28.347h7.086V138.023z M110.97,194.716h-7.086v28.347
	h7.086L110.97,194.716z M110.969,251.409h-7.086v28.347h7.086V251.409z M110.969,308.103h-7.087v21.235h7.087V308.103z
	 M110.969,88.441h-7.087v21.236h7.087V88.441z M172.823,94.156l-7.016-1l-2.995,21.023l7.016,1L172.823,94.156z M141.844,311.622
	l-7.016-1l-2.995,21.023l7.016,1L141.844,311.622z M149.84,255.495l-7.016-0.999l-3.998,28.063l7.016,1L149.84,255.495z
	 M157.835,199.369l-7.016-1l-3.998,28.063l7.016,1L157.835,199.369z M165.831,143.243l-7.016-1l-3.998,28.063l7.016,1
	L165.831,143.243z M136.917,40.252c0,2.818,2.284,5.102,5.102,5.102s5.103-2.284,5.103-5.102c0-2.818-2.285-5.103-5.103-5.103
	S136.917,37.434,136.917,40.252z M56.082,434.488c-7.728-5.339-18.321-3.403-23.661,4.325s-3.403,18.321,4.325,23.661
	c7.729,5.339,18.322,3.403,23.661-4.325S63.81,439.827,56.082,434.488z M67.064,426.571c1.424-2.061,0.908-4.886-1.153-6.31
	c-2.061-1.424-4.886-0.908-6.31,1.153c-1.424,2.061-0.907,4.886,1.153,6.31C62.815,429.148,65.64,428.632,67.064,426.571z
	 M37.765,419.642c-1.073-2.264-3.777-3.229-6.041-2.156s-3.229,3.777-2.156,6.041c1.073,2.264,3.777,3.229,6.041,2.156
	S38.837,421.906,37.765,419.642z M17.115,441.552c-2.497-0.203-4.685,1.657-4.888,4.153s1.657,4.685,4.153,4.888
	c2.497,0.203,4.686-1.657,4.888-4.154C21.471,443.942,19.611,441.754,17.115,441.552z M55.063,477.319
	c1.072,2.264,3.777,3.229,6.041,2.156c2.263-1.073,3.229-3.777,2.155-6.041c-1.072-2.264-3.777-3.229-6.041-2.156
	S53.99,475.055,55.063,477.319z M75.713,455.409c2.496,0.203,4.685-1.657,4.887-4.153s-1.657-4.685-4.154-4.888
	c-2.496-0.203-4.685,1.657-4.887,4.154S73.216,455.207,75.713,455.409z M25.764,470.39c-1.424,2.061-0.908,4.886,1.153,6.31
	c2.062,1.424,4.886,0.908,6.31-1.153c1.424-2.061,0.908-4.886-1.153-6.31C30.012,467.812,27.188,468.329,25.764,470.39z
	 M164.518,457.654c0-2.818-2.284-5.102-5.103-5.102c-2.817,0-5.103,2.284-5.103,5.102c0,2.818,2.285,5.103,5.103,5.103
	C162.234,462.757,164.518,460.473,164.518,457.654z M243.278,119.917c0,2.505,2.031,4.535,4.536,4.535
	c2.504-0.001,4.535-2.031,4.535-4.536c0-2.505-2.031-4.535-4.536-4.535S243.277,117.412,243.278,119.917z M215.461,463.518
	c0,2.505,2.031,4.535,4.536,4.535c2.505,0,4.536-2.031,4.535-4.536c0-2.505-2.031-4.535-4.536-4.535
	S215.461,461.013,215.461,463.518z M186.051,409.517c0-2.505-2.031-4.535-4.536-4.535c-2.504,0.001-4.535,2.031-4.535,4.536
	c0,2.505,2.031,4.535,4.536,4.535S186.051,412.022,186.051,409.517z M213.868,65.916c0-2.505-2.031-4.535-4.536-4.535
	c-2.505,0-4.536,2.031-4.535,4.536c0,2.505,2.031,4.535,4.536,4.535S213.868,68.42,213.868,65.916z"/>
</svg>
