<?xml version="1.0" encoding="utf-8"?>
<!-- Generator: Adobe Illustrator 16.0.4, SVG Export Plug-In . SVG Version: 6.00 Build 0)  -->
<!DOCTYPE svg PUBLIC "-//W3C//DTD SVG 1.1//EN" "http://www.w3.org/Graphics/SVG/1.1/DTD/svg11.dtd">
<svg version="1.1" id="Lines" xmlns="http://www.w3.org/2000/svg" xmlns:xlink="http://www.w3.org/1999/xlink" x="0px" y="0px"
	 width="595.28px" height="841.89px" viewBox="0 0 595.28 841.89" enable-background="new 0 0 595.28 841.89" xml:space="preserve">
<path fill="none" stroke="#004080" stroke-linecap="round" stroke-linejoin="round" d="M178.604,268.623v141.732H-0.089V268.623
	H178.604z M6.974,424.111v14.173l-7.087,1.113v27.233h7.087v28.347h-7.087v28.347h7.087v28.346h-7.087v28.347h7.087v28.346h-7.087
	v28.347h7.087v28.347h-7.087v28.346h7.087v14.173h23.639v7.087h28.347v-7.087h23.639v-14.173h7.086v-28.346h-7.086v-28.347h7.086
	v-28.347h-7.086v-28.346h7.086V551.67h-7.086v-28.346h7.086v-28.347h-7.086V466.63h7.086v-28.346h-7.086v-14.173H58.959v-7.086
	H30.612v7.086H6.974z M120.384,187.95v-12.407h7.086v-28.347h-7.086V134.79H6.998v12.407h-7.086v28.347h7.086v12.407h42.52v7.086
	h28.346v-7.086H120.384z M120.383,121.035v-12.407h7.087V80.281h-7.087V67.875H6.998v12.407h-7.086v28.347h7.086v12.407h42.52v7.086
	h28.347v-7.086H120.383z M120.383,254.866V242.46h7.087v-28.347h-7.087v-12.407H6.998v12.407h-7.086v28.347h7.086v12.406h42.52
	v7.087h28.347v-7.087H120.383z M120.384,54.118V41.712h7.086V13.365h-7.086V0.959H6.998v12.407h-7.086v28.347h7.086v12.406h42.52
	v7.087h28.346v-7.087H120.384z"/>
<path fill="none" stroke="#FF0000" stroke-linecap="round" stroke-linejoin="round" d="M21.171,398.585h-7.087v-23.639h7.087
	V398.585z M21.171,280.392h-7.087v23.639h7.087V280.392z M136.469,299.068c-1.31-2.505-5.009-2.115-5.767,0.608
	c-0.163,0.584-0.114,5.272-0.114,5.844c0,0.329,0.214,0.803-0.322,0.803c-0.236,0-0.472,0-0.707,0c-0.472,0-0.943,0-1.415,0
	c-1.886,0-3.771,0-5.657,0c-1.792,0-3.584,0-5.376,0c-0.448,0-0.896,0-1.344,0c-0.656,0-0.344,0.246-0.344,0.685
	c0,0.467,0,0.935,0,1.402c0,1.87,0,3.739,0,5.609c0,4.92,0,9.84,0,14.76c0,9.84,0,19.68,0,29.52c0,2.46,0,4.92,0,7.38
	c0,1.23,0,2.46,0,3.69c0,0.615,0,1.23,0,1.845c0,0.308,0,0.615,0,0.923c0,0.153,0,0.308,0,0.461c0,0.271,0.266,0.056,0.405,0.056
	c4.92,0,9.84,0,14.76,0c0,0.896-0.133,6.324,0.354,7.256c1.311,2.505,5.009,2.115,5.768-0.608c0.162-0.584,0.114-5.273,0.114-5.844
	c0-0.329-0.215-0.803,0.322-0.803c0.235,0,0.472,0,0.707,0c0.472,0,0.943,0,1.414,0c1.887,0,3.772,0,5.658,0
	c1.792,0,3.584,0,5.376,0c0.447,0,0.896,0,1.344,0c0.656,0,0.344-0.247,0.344-0.685c0-0.467,0-0.935,0-1.402c0-1.87,0-3.74,0-5.61
	c0-4.92,0-9.84,0-14.76c0-9.84,0-19.68,0-29.52c0-2.46,0-4.92,0-7.38c0-1.23,0-2.46,0-3.69c0-0.615,0-1.23,0-1.845
	c0-0.308,0-0.615,0-0.923c0-0.153,0-0.308,0-0.461c0-0.271-0.266-0.056-0.405-0.056c-4.92,0-9.84,0-14.76,0
	C136.824,305.427,136.957,300,136.469,299.068z M135.346,389.095v7.086h23.639v-7.086H135.346z M88.068,389.095v7.086h23.639v-7.086
	H88.068z M40.791,389.095v7.086H64.43v-7.086H40.791z M14.084,327.669v23.639h7.087v-23.639H14.084z M40.791,282.796v7.086H64.43
	v-7.086H40.791z M88.068,282.796v7.086h23.639v-7.086H88.068z M135.346,282.796v7.086h23.639v-7.086H135.346z M6.974,505.607v7.087
	h23.639v-7.087H6.974z M6.974,618.993v7.087h23.639v-7.087H6.974z M58.959,618.993v7.087h23.639v-7.087H58.959z M58.959,505.607
	v7.087h23.639v-7.087H58.959z"/>
</svg>
