<?xml version="1.0" encoding="utf-8"?>
<!-- Generator: Adobe Illustrator 16.0.4, SVG Export Plug-In . SVG Version: 6.00 Build 0)  -->
<!DOCTYPE svg PUBLIC "-//W3C//DTD SVG 1.1//EN" "http://www.w3.org/Graphics/SVG/1.1/DTD/svg11.dtd">
<svg version="1.1" id="Lines" xmlns="http://www.w3.org/2000/svg" xmlns:xlink="http://www.w3.org/1999/xlink" x="0px" y="0px"
	 width="595.28px" height="841.89px" viewBox="0 0 595.28 841.89" enable-background="new 0 0 595.28 841.89" xml:space="preserve">
<path fill="none" stroke="#004080" stroke-linecap="round" stroke-linejoin="round" d="M174.317,250.354c10.862,0,21.724,0,32.585,0
	c48.135,70.004,48.135,162.437,0,232.441c-10.862,0-21.724,0-32.585,0c0-2.362,0-4.724,0-7.086c-9.449,0-18.897,0-28.346,0
	c0,2.362,0,4.724,0,7.086c-9.449,0-18.897,0-28.347,0c0-2.362,0-4.724,0-7.086c-9.449,0-18.897,0-28.347,0c0,2.362,0,4.724,0,7.086
	c-9.448,0-18.897,0-28.346,0c0-2.362,0-4.724,0-7.086c-9.449,0-18.897,0-28.346,0c0,2.362,0,4.724,0,7.086
	c-10.862,0-21.724,0-32.585,0c0-77.48,0-154.96,0-232.441c10.861,0,21.723,0,32.585,0c0,2.362,0,4.725,0,7.087
	c9.449,0,18.897,0,28.346,0c0-2.362,0-4.725,0-7.087c9.449,0,18.898,0,28.346,0c0,2.362,0,4.725,0,7.087c9.449,0,18.898,0,28.347,0
	c0-2.362,0-4.725,0-7.087c9.449,0,18.897,0,28.347,0c0,2.362,0,4.725,0,7.087c9.449,0,18.897,0,28.346,0
	C174.317,255.079,174.317,252.717,174.317,250.354z M2.834,5.158c0,72.756,0,145.512,0,218.268c70.521,0,141.042,0,211.562,0
	c41.922-66.717,41.922-151.551,0-218.268C143.876,5.158,73.355,5.158,2.834,5.158z"/>
<path fill="none" stroke="#FF0000" stroke-linecap="round" stroke-linejoin="round" d="M226.437,114.292
	c0-3.288,2.666-5.953,5.953-5.953s5.953,2.665,5.953,5.953s-2.665,5.953-5.953,5.953S226.437,117.579,226.437,114.292z
	 M49.654,46.181c0,3.288,2.665,5.953,5.953,5.953s5.953-2.665,5.953-5.953s-2.665-5.953-5.953-5.953S49.654,42.893,49.654,46.181z
	 M49.654,182.402c0,3.288,2.665,5.953,5.953,5.953s5.953-2.666,5.953-5.953s-2.665-5.953-5.953-5.953S49.654,179.115,49.654,182.402
	z M195.203,106.071c3.288,0,5.953-2.665,5.953-5.953c0-3.287-2.665-5.953-5.953-5.953c-4.063,0-8.126,0-12.189,0
	c0-3.401,0-6.803,0-10.205c-39.118,0-78.236,0-117.354,0c0,3.401,0,6.803,0,10.205c-4.063,0-8.126,0-12.189,0
	c-3.288,0-5.953,2.666-5.953,5.953c0,3.288,2.665,5.953,5.953,5.953c4.063,0,8.126,0,12.189,0c0,5.48,0,10.96,0,16.44
	c-4.063,0-8.126,0-12.189,0c-3.288,0-5.953,2.666-5.953,5.953s2.665,5.953,5.953,5.953c4.063,0,8.126,0,12.189,0
	c0,3.402,0,6.803,0,10.205c39.118,0,78.236,0,117.354,0c0-3.401,0-6.803,0-10.205c4.063,0,8.126,0,12.189,0
	c3.288,0,5.953-2.665,5.953-5.953s-2.665-5.953-5.953-5.953c-4.063,0-8.126,0-12.189,0c0-5.48,0-10.96,0-16.44
	C187.077,106.071,191.14,106.071,195.203,106.071z M140.207,182.402c0-3.288-2.665-5.953-5.952-5.953
	c-3.288,0-5.953,2.665-5.953,5.953s2.665,5.953,5.953,5.953C137.542,188.355,140.207,185.69,140.207,182.402z M22.236,114.292
	c0-3.288-2.666-5.953-5.953-5.953s-5.953,2.665-5.953,5.953s2.666,5.953,5.953,5.953S22.236,117.579,22.236,114.292z
	 M140.207,46.181c0-3.288-2.665-5.953-5.952-5.953c-3.288,0-5.953,2.665-5.953,5.953s2.665,5.953,5.953,5.953
	C137.542,52.133,140.207,49.468,140.207,46.181z M137.373,298.464c0-3.287-2.665-5.952-5.953-5.952s-5.953,2.665-5.953,5.952
	c0,3.288,2.665,5.953,5.953,5.953S137.373,301.752,137.373,298.464z M19.401,366.575c0-3.288-2.665-5.953-5.953-5.953
	c-3.287,0-5.952,2.665-5.952,5.953c0,3.287,2.665,5.953,5.952,5.953C16.736,372.528,19.401,369.862,19.401,366.575z
	 M137.373,434.686c0-3.287-2.665-5.952-5.953-5.952s-5.953,2.665-5.953,5.952c0,3.288,2.665,5.953,5.953,5.953
	S137.373,437.974,137.373,434.686z M192.368,358.354c3.287,0,5.952-2.665,5.952-5.953s-2.665-5.953-5.952-5.953
	c-4.063,0-8.126,0-12.189,0c0-3.402,0-6.804,0-10.205c-39.118,0-78.236,0-117.354,0c0,3.401,0,6.803,0,10.205
	c-4.062,0-8.126,0-12.188,0c-3.288,0-5.953,2.665-5.953,5.953s2.665,5.953,5.953,5.953c4.062,0,8.126,0,12.188,0
	c0,5.48,0,10.961,0,16.441c-4.062,0-8.126,0-12.188,0c-3.288,0-5.953,2.666-5.953,5.953c0,3.288,2.665,5.953,5.953,5.953
	c4.062,0,8.126,0,12.188,0c0,3.401,0,6.803,0,10.205c39.118,0,78.236,0,117.354,0c0-3.402,0-6.803,0-10.205
	c4.063,0,8.126,0,12.189,0c3.287,0,5.952-2.665,5.952-5.953c0-3.287-2.665-5.953-5.952-5.953c-4.063,0-8.126,0-12.189,0
	c0-5.48,0-10.96,0-16.441C184.242,358.354,188.305,358.354,192.368,358.354z M46.819,434.686c0,3.288,2.665,5.953,5.953,5.953
	c3.288,0,5.953-2.665,5.953-5.953c0-3.287-2.665-5.952-5.953-5.952C49.484,428.733,46.819,431.398,46.819,434.686z M46.819,298.464
	c0,3.288,2.665,5.953,5.953,5.953c3.288,0,5.953-2.665,5.953-5.953c0-3.287-2.665-5.952-5.953-5.952
	C49.484,292.512,46.819,295.177,46.819,298.464z M229.555,372.528c3.288,0,5.953-2.666,5.953-5.953c0-3.288-2.665-5.953-5.953-5.953
	c-3.287,0-5.953,2.665-5.953,5.953C223.602,369.862,226.268,372.528,229.555,372.528z"/>
</svg>
