<?xml version="1.0" encoding="utf-8"?>
<!-- Generator: Adobe Illustrator 16.0.4, SVG Export Plug-In . SVG Version: 6.00 Build 0)  -->
<!DOCTYPE svg PUBLIC "-//W3C//DTD SVG 1.1//EN" "http://www.w3.org/Graphics/SVG/1.1/DTD/svg11.dtd">
<svg version="1.1" id="Lines" xmlns="http://www.w3.org/2000/svg" xmlns:xlink="http://www.w3.org/1999/xlink" x="0px" y="0px"
	 width="595.28px" height="841.89px" viewBox="0 0 595.28 841.89" enable-background="new 0 0 595.28 841.89" xml:space="preserve">
<path fill="none" stroke="#004080" stroke-linecap="round" stroke-linejoin="round" d="M0,507.401C0,343.937,0,180.472,0,17.008
	C0,7.614,7.614,0,17.008,0C125.48,0,233.953,0,342.425,0c9.394,0,17.008,7.614,17.008,17.008c0,163.464,0,326.929,0,490.394
	c0,9.393-7.614,17.008-17.008,17.008c-108.472,0-216.945,0-325.417,0C7.614,524.409,0,516.794,0,507.401z"/>
<path fill="none" stroke="#FF0000" stroke-linecap="round" stroke-linejoin="round" d="M154.488,170.06
	c0,2.505-2.031,4.536-4.535,4.536c-2.505,0-4.536-2.031-4.536-4.536c0-2.504,2.031-4.536,4.536-4.536
	C152.457,165.524,154.488,167.556,154.488,170.06z M190.67,198.104c1.252,2.169,4.026,2.913,6.195,1.66
	c2.169-1.252,2.913-4.026,1.66-6.196c-1.252-2.169-4.026-2.912-6.195-1.66C190.161,193.161,189.418,195.935,190.67,198.104z
	 M160.906,193.568c-1.252,2.17-0.509,4.943,1.66,6.196c2.169,1.252,4.943,0.509,6.196-1.66s0.509-4.943-1.66-6.196
	C164.933,190.656,162.159,191.399,160.906,193.568z M168.762,142.017c-1.252-2.169-4.026-2.913-6.196-1.66
	c-2.169,1.252-2.912,4.026-1.66,6.195c1.253,2.169,4.026,2.913,6.196,1.66S170.015,144.186,168.762,142.017z M198.526,146.552
	c1.252-2.169,0.509-4.943-1.66-6.195c-2.169-1.253-4.943-0.509-6.195,1.66c-1.252,2.169-0.509,4.943,1.66,6.195
	S197.273,148.721,198.526,146.552z M209.48,174.596c2.505,0,4.536-2.031,4.536-4.536c0-2.504-2.031-4.536-4.536-4.536
	s-4.536,2.031-4.536,4.536C204.944,172.565,206.975,174.596,209.48,174.596z M196.724,170.06c0-9.393-7.615-17.008-17.008-17.008
	s-17.008,7.615-17.008,17.008s7.615,17.008,17.008,17.008S196.724,179.453,196.724,170.06z M179.716,425.196
	c15.655,0,28.346-12.691,28.346-28.346c0-15.656-12.691-28.346-28.346-28.346s-28.346,12.69-28.346,28.346
	C151.37,412.505,164.061,425.196,179.716,425.196z M342.425,28.346c6.262,0,11.339-5.076,11.339-11.338
	c0-6.263-5.077-11.339-11.339-11.339c-6.262,0-11.338,5.076-11.338,11.339C331.086,23.27,336.163,28.346,342.425,28.346z
	 M17.008,28.346c6.262,0,11.338-5.076,11.338-11.338c0-6.263-5.077-11.339-11.338-11.339c-6.262,0-11.339,5.076-11.339,11.339
	C5.669,23.27,10.746,28.346,17.008,28.346z M17.008,273.543c6.262,0,11.338-5.076,11.338-11.339c0-6.262-5.077-11.338-11.338-11.338
	c-6.262,0-11.339,5.077-11.339,11.338C5.669,268.467,10.746,273.543,17.008,273.543z M342.425,273.543
	c6.262,0,11.339-5.076,11.339-11.339c0-6.262-5.077-11.338-11.339-11.338c-6.262,0-11.338,5.077-11.338,11.338
	C331.086,268.467,336.163,273.543,342.425,273.543z M342.425,518.74c6.262,0,11.339-5.077,11.339-11.338
	c0-6.262-5.077-11.339-11.339-11.339c-6.262,0-11.338,5.077-11.338,11.339C331.086,513.663,336.163,518.74,342.425,518.74z
	 M17.008,518.74c6.262,0,11.338-5.077,11.338-11.338c0-6.262-5.077-11.339-11.338-11.339c-6.262,0-11.339,5.077-11.339,11.339
	C5.669,513.663,10.746,518.74,17.008,518.74z"/>
</svg>
