<?xml version="1.0" encoding="utf-8"?>
<!-- Generator: Adobe Illustrator 16.0.4, SVG Export Plug-In . SVG Version: 6.00 Build 0)  -->
<!DOCTYPE svg PUBLIC "-//W3C//DTD SVG 1.1//EN" "http://www.w3.org/Graphics/SVG/1.1/DTD/svg11.dtd">
<svg version="1.1" id="Lines" xmlns="http://www.w3.org/2000/svg" xmlns:xlink="http://www.w3.org/1999/xlink" x="0px" y="0px"
	 width="595.28px" height="841.89px" viewBox="0 0 595.28 841.89" enable-background="new 0 0 595.28 841.89" xml:space="preserve">
<path fill="none" stroke="#004080" stroke-linecap="round" stroke-linejoin="round" d="M-0.071,507.401
	c0-163.465,0-326.929,0-490.394C-0.071,7.614,7.543,0,16.937,0c108.472,0,216.945,0,325.417,0c9.393,0,17.008,7.614,17.008,17.008
	c0,163.464,0,326.929,0,490.394c0,9.393-7.615,17.008-17.008,17.008c-108.472,0-216.945,0-325.417,0
	C7.543,524.409-0.071,516.794-0.071,507.401z"/>
<path fill="none" stroke="#FF0000" stroke-linecap="round" stroke-linejoin="round" d="M105.944,464.314
	c2.661,0,4.819,2.158,4.819,4.819c0,2.661-2.158,4.818-4.819,4.818c-2.662,0-4.819-2.157-4.819-4.818
	C101.125,466.472,103.283,464.314,105.944,464.314z M105.944,60.094c2.661,0,4.819-2.158,4.819-4.819
	c0-2.662-2.158-4.819-4.819-4.819c-2.662,0-4.819,2.158-4.819,4.819C101.125,57.937,103.283,60.094,105.944,60.094z
	 M253.346,473.952c2.661,0,4.819-2.157,4.819-4.818c0-2.662-2.158-4.819-4.819-4.819s-4.819,2.158-4.819,4.819
	C248.527,471.795,250.685,473.952,253.346,473.952z M253.346,60.094c2.661,0,4.819-2.158,4.819-4.819
	c0-2.662-2.158-4.819-4.819-4.819s-4.819,2.158-4.819,4.819C248.527,57.937,250.685,60.094,253.346,60.094z M342.354,22.677
	c3.131,0,5.669-2.538,5.669-5.669c0-3.131-2.538-5.67-5.669-5.67c-3.131,0-5.669,2.539-5.669,5.67
	C336.685,20.139,339.223,22.677,342.354,22.677z M222.165,510.235h28.347v-7.086l-28.347,0V510.235z M165.472,510.236h28.347v-7.086
	h-28.347V510.236z M108.779,510.236h28.347l0-7.087h-28.346V510.236z M108.779,21.259l28.346,0l0-7.087h-28.347V21.259z
	 M165.472,21.26h28.347v-7.087h-28.347V21.26z M222.165,21.26h28.347v-7.087h-28.347V21.26z M336.685,507.401
	c0,3.131,2.538,5.669,5.669,5.669c3.131,0,5.669-2.538,5.669-5.669s-2.538-5.669-5.669-5.669
	C339.223,501.732,336.685,504.271,336.685,507.401z M336.685,262.204c0,3.131,2.538,5.67,5.669,5.67c3.131,0,5.669-2.539,5.669-5.67
	c0-3.131-2.538-5.669-5.669-5.669C339.223,256.535,336.685,259.073,336.685,262.204z M304.085,21.26v28.346h7.087V21.26H304.085z
	 M304.085,77.952l0,28.347h7.086V77.952H304.085z M304.085,134.646v28.346h7.086v-28.346H304.085z M304.086,248.031v28.347h7.087
	l0-28.347H304.086z M304.086,191.338v28.346h7.086v-28.347L304.086,191.338z M304.086,361.417v28.347h7.087v-28.347H304.086z
	 M304.086,304.724v28.346h7.087v-28.346H304.086z M304.086,474.803l0,28.347h7.086l0-28.347H304.086z M304.086,418.11v28.346h7.086
	V418.11H304.086z M22.605,262.204c0-3.131-2.538-5.669-5.669-5.669c-3.131,0-5.669,2.538-5.669,5.669c0,3.131,2.538,5.67,5.669,5.67
	C20.067,267.874,22.605,265.335,22.605,262.204z M22.605,17.008c0-3.131-2.538-5.67-5.669-5.67c-3.131,0-5.669,2.539-5.669,5.67
	c0,3.131,2.538,5.669,5.669,5.669C20.067,22.677,22.605,20.139,22.605,17.008z M48.117,418.11v28.346h7.086V418.11H48.117z
	 M48.117,474.803v28.347h7.086v-28.347H48.117z M48.117,304.724v28.346h7.087v-28.346H48.117z M48.117,361.417v28.347h7.086v-28.347
	H48.117z M48.118,191.338v28.347h7.086v-28.346L48.118,191.338z M48.118,248.031l0,28.347h7.087v-28.347H48.118z M48.118,134.646
	v28.346h7.086v-28.346H48.118z M48.118,77.952v28.347h7.086l0-28.347H48.118z M48.118,21.26v28.346h7.087V21.26H48.118z
	 M16.937,501.732c-3.131,0-5.669,2.539-5.669,5.669s2.538,5.669,5.669,5.669c3.131,0,5.669-2.538,5.669-5.669
	S20.067,501.732,16.937,501.732z"/>
</svg>
