<?xml version="1.0" encoding="utf-8"?>
<!-- Generator: Adobe Illustrator 16.0.4, SVG Export Plug-In . SVG Version: 6.00 Build 0)  -->
<!DOCTYPE svg PUBLIC "-//W3C//DTD SVG 1.1//EN" "http://www.w3.org/Graphics/SVG/1.1/DTD/svg11.dtd">
<svg version="1.1" id="Lines" xmlns="http://www.w3.org/2000/svg" xmlns:xlink="http://www.w3.org/1999/xlink" x="0px" y="0px"
	 width="595.28px" height="841.89px" viewBox="0 0 595.28 841.89" enable-background="new 0 0 595.28 841.89" xml:space="preserve">
<path fill="none" stroke="#004080" stroke-linecap="round" stroke-linejoin="round" d="M300.155,316.283L103.198,513.237
	l-77.432-0.001v-32.585H18.68v32.585H4.506V306.334H18.68v32.585h7.086v-32.585H105.7l92.254-92.254h19.989l82.213,82.156
	L300.155,316.283z M0,217.046l82.212,82.156h19.989l92.254-92.253h79.935v-32.585h7.086v32.585h14.174V0.047h-14.174v32.585h-7.086
	V0.047h-77.433L0,197L0,217.046z"/>
<path fill="none" stroke="#FF0000" stroke-linecap="round" stroke-linejoin="round" d="M25.766,395.612H18.68v-28.347h7.086V395.612
	z M152.452,400.089c2.404,2.406,4.808,4.813,7.211,7.221c27.68-27.642,55.359-55.283,83.039-82.925
	c-2.403-2.407-4.807-4.814-7.211-7.222c2.875-2.87,5.75-5.741,8.625-8.612c2.326-2.323,2.329-6.093,0.006-8.419
	s-6.092-2.329-8.419-0.006c-2.875,2.871-5.749,5.742-8.624,8.613c-3.873-3.878-7.745-7.756-11.618-11.634
	c2.875-2.871,5.75-5.741,8.625-8.612c2.326-2.323,2.329-6.093,0.006-8.419s-6.092-2.329-8.419-0.006
	c-2.874,2.871-5.75,5.742-8.625,8.613c-2.404-2.407-4.807-4.813-7.211-7.221c-27.68,27.642-55.359,55.283-83.039,82.925
	c2.404,2.407,4.808,4.814,7.211,7.221c-2.875,2.871-5.75,5.742-8.625,8.613c-2.326,2.323-2.329,6.092-0.006,8.419
	c2.323,2.326,6.092,2.328,8.418,0.005c2.875-2.87,5.75-5.741,8.625-8.612c3.872,3.878,7.745,7.755,11.617,11.633
	c-2.875,2.871-5.75,5.742-8.625,8.613c-2.327,2.323-2.329,6.092-0.006,8.419c2.323,2.326,6.092,2.328,8.418,0.006
	C146.703,405.832,149.578,402.96,152.452,400.089z M151.827,280.251l-20.044,20.044l5.011,5.011l20.044-20.044L151.827,280.251z
	 M191.915,240.164l-20.044,20.044l5.011,5.011l20.044-20.044L191.915,240.164z M25.766,423.958H18.68v28.347h7.086V423.958z
	 M147.704,113.194c-2.404-2.407-4.808-4.814-7.211-7.221c-27.68,27.642-55.359,55.283-83.039,82.925
	c2.404,2.407,4.807,4.813,7.211,7.221c-2.875,2.871-5.75,5.742-8.625,8.613c-2.326,2.323-2.329,6.092-0.005,8.418
	c2.323,2.326,6.092,2.329,8.418,0.006c2.875-2.871,5.75-5.742,8.625-8.613c3.873,3.878,7.745,7.756,11.618,11.634
	c-2.875,2.871-5.75,5.742-8.625,8.613c-2.326,2.323-2.329,6.092-0.006,8.418c2.323,2.326,6.092,2.329,8.419,0.006
	c2.875-2.871,5.75-5.742,8.625-8.612c2.404,2.406,4.807,4.813,7.211,7.221c27.68-27.643,55.359-55.284,83.039-82.926
	c-2.404-2.406-4.808-4.813-7.211-7.221c2.875-2.871,5.75-5.742,8.625-8.613c2.326-2.322,2.329-6.092,0.006-8.418
	s-6.092-2.329-8.418-0.006c-2.875,2.871-5.75,5.742-8.625,8.613c-3.872-3.878-7.745-7.756-11.617-11.634
	c2.875-2.871,5.75-5.742,8.625-8.613c2.327-2.322,2.329-6.092,0.006-8.418c-2.323-2.326-6.092-2.329-8.418-0.006
	C153.453,107.452,150.578,110.323,147.704,113.194z M148.329,233.032l20.044-20.044l-5.011-5.012l-20.044,20.044L148.329,233.032z
	 M108.241,273.119l20.044-20.044l-5.011-5.011l-20.044,20.044L108.241,273.119z M274.39,89.325h7.086V60.979h-7.086V89.325z
	 M274.39,146.018h7.086v-28.347h-7.086V146.018z"/>
</svg>
