<?xml version="1.0" encoding="utf-8"?>
<!-- Generator: Adobe Illustrator 16.0.4, SVG Export Plug-In . SVG Version: 6.00 Build 0)  -->
<!DOCTYPE svg PUBLIC "-//W3C//DTD SVG 1.1//EN" "http://www.w3.org/Graphics/SVG/1.1/DTD/svg11.dtd">
<svg version="1.1" id="レイヤー_1" xmlns="http://www.w3.org/2000/svg" xmlns:xlink="http://www.w3.org/1999/xlink" x="0px"
	 y="0px" width="841.89px" height="595.28px" viewBox="0 0 841.89 595.28" enable-background="new 0 0 841.89 595.28"
	 xml:space="preserve">
<circle fill="none" stroke="#231815" stroke-linecap="round" stroke-linejoin="round" cx="336.301" cy="516.29" r="5.669"/>
<circle fill="none" stroke="#231815" stroke-linecap="round" stroke-linejoin="round" cx="155.547" cy="136.447" r="28.347"/>
<circle fill="none" stroke="#231815" stroke-linecap="round" stroke-linejoin="round" cx="661.718" cy="25.896" r="5.669"/>
<path fill="none" stroke="#231815" stroke-linecap="round" stroke-linejoin="round" d="M673.745,504.264
	c-9.678-9.678-19.356-19.356-29.034-29.034c0-54.358,0-108.718,0-163.075c9.678-9.679,19.356-19.356,29.034-29.035
	c6.642-6.642,6.642-17.41,0-24.053c-9.678-9.678-19.356-19.355-29.034-29.034c0-54.358,0-108.717,0-163.075
	c9.678-9.679,19.356-19.356,29.034-29.034c10.714-10.715,3.126-29.034-12.026-29.034c-108.472,0-216.945,0-325.417,0
	c-15.152,0-22.741,18.319-12.026,29.034c9.678,9.678,19.356,19.355,29.034,29.034c0,54.358,0,108.717,0,163.075
	c-9.678,9.679-19.356,19.356-29.034,29.034c-6.642,6.643-6.642,17.411,0,24.053c9.678,9.679,19.356,19.356,29.034,29.035
	c0,54.357,0,108.717,0,163.075c-9.678,9.678-19.356,19.356-29.034,29.034c-10.715,10.715-3.126,29.034,12.026,29.034
	c108.472,0,216.945,0,325.417,0C676.871,533.298,684.458,514.979,673.745,504.264z"/>
<circle fill="none" stroke="#231815" stroke-linecap="round" stroke-linejoin="round" cx="778.484" cy="486.203" r="17.008"/>
<circle fill="none" stroke="#231815" stroke-linecap="round" stroke-linejoin="round" cx="661.718" cy="516.29" r="5.669"/>
<circle fill="none" stroke="#231815" stroke-linecap="round" stroke-linejoin="round" cx="661.718" cy="271.093" r="5.669"/>
<rect x="9.847" y="8.889" fill="none" stroke="#231815" stroke-linecap="round" stroke-linejoin="round" width="291.401" height="524.409"/>
<circle fill="none" stroke="#231815" stroke-linecap="round" stroke-linejoin="round" cx="336.301" cy="271.093" r="5.669"/>
<circle fill="none" stroke="#231815" stroke-linecap="round" stroke-linejoin="round" cx="336.301" cy="25.896" r="5.669"/>
<circle fill="none" stroke="#231815" stroke-linecap="round" stroke-linejoin="round" cx="155.547" cy="363.237" r="14.173"/>
<circle fill="none" stroke="#231815" stroke-linecap="round" stroke-linejoin="round" cx="185.311" cy="363.237" r="4.536"/>
<circle fill="none" stroke="#231815" stroke-linecap="round" stroke-linejoin="round" cx="125.783" cy="363.237" r="4.536"/>
<circle fill="none" stroke="#231815" stroke-linecap="round" stroke-linejoin="round" cx="155.547" cy="333.474" r="4.535"/>
<circle fill="none" stroke="#231815" stroke-linecap="round" stroke-linejoin="round" cx="155.547" cy="393.001" r="4.536"/>
<circle fill="none" stroke="#231815" stroke-linecap="round" stroke-linejoin="round" cx="717.021" cy="27.863" r="4.535"/>
<circle fill="none" stroke="#231815" stroke-linecap="round" stroke-linejoin="round" cx="717.021" cy="372.589" r="4.535"/>
<circle fill="none" stroke="#231815" stroke-linecap="round" stroke-linejoin="round" cx="744.602" cy="488.954" r="4.677"/>
<circle fill="none" stroke="#231815" stroke-linecap="round" stroke-linejoin="round" cx="812.365" cy="483.453" r="4.677"/>
<circle fill="none" stroke="#231815" stroke-linecap="round" stroke-linejoin="round" cx="781.234" cy="520.084" r="4.677"/>
<circle fill="none" stroke="#231815" stroke-linecap="round" stroke-linejoin="round" cx="775.732" cy="452.321" r="4.677"/>
<circle fill="none" stroke="#231815" stroke-linecap="round" stroke-linejoin="round" cx="752.593" cy="464.174" r="4.677"/>
<circle fill="none" stroke="#231815" stroke-linecap="round" stroke-linejoin="round" cx="800.512" cy="460.313" r="4.677"/>
<circle fill="none" stroke="#231815" stroke-linecap="round" stroke-linejoin="round" cx="804.373" cy="508.231" r="4.677"/>
<circle fill="none" stroke="#231815" stroke-linecap="round" stroke-linejoin="round" cx="756.455" cy="512.093" r="4.677"/>
<path fill="none" stroke="#231815" stroke-linecap="round" stroke-linejoin="round" d="M752.983,449.779
	c-15.896,11.13-22.739,31.283-16.905,49.79s22.996,31.094,42.4,31.097c19.405,0.002,36.57-12.581,42.408-31.088
	c5.838-18.506-1-38.66-16.895-49.793c0-25.652,0-51.305,0-76.956c0-14.213-11.616-25.685-25.828-25.507
	c-14.211,0.179-25.537,11.938-25.181,26.146C752.983,398.905,752.983,424.343,752.983,449.779z"/>
<circle fill="none" stroke="#231815" stroke-linecap="round" stroke-linejoin="round" cx="778.483" cy="372.83" r="5.102"/>
<rect x="84.681" y="23.062" fill="none" stroke="#231815" stroke-linecap="round" stroke-linejoin="round" width="28.347" height="7.087"/>
<rect x="141.374" y="23.062" fill="none" stroke="#231815" stroke-linecap="round" stroke-linejoin="round" width="28.346" height="7.087"/>
<rect x="198.066" y="23.062" fill="none" stroke="#231815" stroke-linecap="round" stroke-linejoin="round" width="28.347" height="7.087"/>
<rect x="198.066" y="512.038" fill="none" stroke="#231815" stroke-linecap="round" stroke-linejoin="round" width="28.347" height="7.087"/>
<rect x="141.374" y="512.038" fill="none" stroke="#231815" stroke-linecap="round" stroke-linejoin="round" width="28.346" height="7.087"/>
<rect x="84.681" y="512.038" fill="none" stroke="#231815" stroke-linecap="round" stroke-linejoin="round" width="28.347" height="7.087"/>
<rect x="24.02" y="483.691" fill="none" stroke="#231815" stroke-linecap="round" stroke-linejoin="round" width="7.087" height="28.347"/>
<rect x="24.02" y="426.998" fill="none" stroke="#231815" stroke-linecap="round" stroke-linejoin="round" width="7.087" height="28.348"/>
<rect x="24.019" y="370.306" fill="none" stroke="#231815" stroke-linecap="round" stroke-linejoin="round" width="7.087" height="28.347"/>
<rect x="24.019" y="256.92" fill="none" stroke="#231815" stroke-linecap="round" stroke-linejoin="round" width="7.087" height="28.347"/>
<rect x="24.019" y="313.613" fill="none" stroke="#231815" stroke-linecap="round" stroke-linejoin="round" width="7.087" height="28.346"/>
<rect x="24.019" y="143.534" fill="none" stroke="#231815" stroke-linecap="round" stroke-linejoin="round" width="7.086" height="28.347"/>
<rect x="24.019" y="200.227" fill="none" stroke="#231815" stroke-linecap="round" stroke-linejoin="round" width="7.087" height="28.347"/>
<rect x="24.019" y="30.148" fill="none" stroke="#231815" stroke-linecap="round" stroke-linejoin="round" width="7.086" height="28.347"/>
<rect x="24.019" y="86.841" fill="none" stroke="#231815" stroke-linecap="round" stroke-linejoin="round" width="7.086" height="28.347"/>
<rect x="279.989" y="86.841" fill="none" stroke="#231815" stroke-linecap="round" stroke-linejoin="round" width="7.087" height="28.347"/>
<rect x="279.989" y="30.148" fill="none" stroke="#231815" stroke-linecap="round" stroke-linejoin="round" width="7.087" height="28.347"/>
<rect x="279.989" y="200.227" fill="none" stroke="#231815" stroke-linecap="round" stroke-linejoin="round" width="7.086" height="28.347"/>
<rect x="279.989" y="143.534" fill="none" stroke="#231815" stroke-linecap="round" stroke-linejoin="round" width="7.086" height="28.347"/>
<rect x="279.988" y="313.613" fill="none" stroke="#231815" stroke-linecap="round" stroke-linejoin="round" width="7.087" height="28.346"/>
<rect x="279.989" y="256.92" fill="none" stroke="#231815" stroke-linecap="round" stroke-linejoin="round" width="7.086" height="28.347"/>
<rect x="279.988" y="370.306" fill="none" stroke="#231815" stroke-linecap="round" stroke-linejoin="round" width="7.087" height="28.347"/>
<rect x="279.988" y="426.998" fill="none" stroke="#231815" stroke-linecap="round" stroke-linejoin="round" width="7.087" height="28.348"/>
<rect x="279.988" y="483.691" fill="none" stroke="#231815" stroke-linecap="round" stroke-linejoin="round" width="7.086" height="28.347"/>
<rect x="623.45" y="483.691" fill="none" stroke="#231815" stroke-linecap="round" stroke-linejoin="round" width="7.087" height="28.347"/>
<rect x="623.451" y="426.998" fill="none" stroke="#231815" stroke-linecap="round" stroke-linejoin="round" width="7.086" height="28.348"/>
<rect x="623.451" y="370.306" fill="none" stroke="#231815" stroke-linecap="round" stroke-linejoin="round" width="7.086" height="28.347"/>
<rect x="623.451" y="313.613" fill="none" stroke="#231815" stroke-linecap="round" stroke-linejoin="round" width="7.086" height="28.346"/>
<rect x="623.451" y="143.534" fill="none" stroke="#231815" stroke-linecap="round" stroke-linejoin="round" width="7.087" height="28.347"/>
<rect x="623.451" y="200.227" fill="none" stroke="#231815" stroke-linecap="round" stroke-linejoin="round" width="7.087" height="28.347"/>
<rect x="623.451" y="30.148" fill="none" stroke="#231815" stroke-linecap="round" stroke-linejoin="round" width="7.087" height="28.347"/>
<rect x="623.451" y="86.841" fill="none" stroke="#231815" stroke-linecap="round" stroke-linejoin="round" width="7.087" height="28.347"/>
<rect x="367.482" y="86.841" fill="none" stroke="#231815" stroke-linecap="round" stroke-linejoin="round" width="7.087" height="28.347"/>
<rect x="367.481" y="30.148" fill="none" stroke="#231815" stroke-linecap="round" stroke-linejoin="round" width="7.086" height="28.347"/>
<rect x="367.482" y="200.227" fill="none" stroke="#231815" stroke-linecap="round" stroke-linejoin="round" width="7.086" height="28.347"/>
<rect x="367.482" y="143.534" fill="none" stroke="#231815" stroke-linecap="round" stroke-linejoin="round" width="7.086" height="28.347"/>
<rect x="367.482" y="313.613" fill="none" stroke="#231815" stroke-linecap="round" stroke-linejoin="round" width="7.086" height="28.346"/>
<rect x="367.482" y="256.92" fill="none" stroke="#231815" stroke-linecap="round" stroke-linejoin="round" width="7.086" height="28.347"/>
<rect x="367.482" y="370.306" fill="none" stroke="#231815" stroke-linecap="round" stroke-linejoin="round" width="7.087" height="28.347"/>
<rect x="367.483" y="426.998" fill="none" stroke="#231815" stroke-linecap="round" stroke-linejoin="round" width="7.086" height="28.348"/>
<rect x="367.483" y="483.691" fill="none" stroke="#231815" stroke-linecap="round" stroke-linejoin="round" width="7.086" height="28.347"/>
<rect x="428.144" y="512.038" fill="none" stroke="#231815" stroke-linecap="round" stroke-linejoin="round" width="28.347" height="7.087"/>
<rect x="484.836" y="512.038" fill="none" stroke="#231815" stroke-linecap="round" stroke-linejoin="round" width="28.347" height="7.087"/>
<rect x="541.529" y="512.038" fill="none" stroke="#231815" stroke-linecap="round" stroke-linejoin="round" width="28.347" height="7.087"/>
<rect x="541.529" y="23.061" fill="none" stroke="#231815" stroke-linecap="round" stroke-linejoin="round" width="28.347" height="7.087"/>
<rect x="484.836" y="23.062" fill="none" stroke="#231815" stroke-linecap="round" stroke-linejoin="round" width="28.347" height="7.087"/>
<rect x="428.144" y="23.062" fill="none" stroke="#231815" stroke-linecap="round" stroke-linejoin="round" width="28.347" height="7.087"/>
<rect x="623.45" y="256.92" fill="none" stroke="#231815" stroke-linecap="round" stroke-linejoin="round" width="7.087" height="28.347"/>
<path fill="none" stroke="#231815" stroke-linecap="round" stroke-linejoin="round" d="M700.023,372.589
	c0,9.387,7.61,16.997,16.997,16.997c9.388,0,16.997-7.61,16.997-16.997c0-114.908,0-229.816,0-344.726
	c0-9.387-7.609-16.996-16.997-16.996c-9.387,0-16.997,7.609-16.997,16.996C700.023,142.772,700.023,257.681,700.023,372.589z"/>
</svg>
