<?xml version="1.0" encoding="utf-8"?>
<!-- Generator: Adobe Illustrator 16.0.4, SVG Export Plug-In . SVG Version: 6.00 Build 0)  -->
<!DOCTYPE svg PUBLIC "-//W3C//DTD SVG 1.1//EN" "http://www.w3.org/Graphics/SVG/1.1/DTD/svg11.dtd">
<svg version="1.1" id="レイヤー_1" xmlns="http://www.w3.org/2000/svg" xmlns:xlink="http://www.w3.org/1999/xlink" x="0px"
	 y="0px" width="841.891px" height="595.28px" viewBox="0 0 841.891 595.28" enable-background="new 0 0 841.891 595.28"
	 xml:space="preserve">
<path fill="none" stroke="#231815" stroke-linecap="round" stroke-linejoin="round" d="M178.633,507.524
	c0,4.697,3.808,8.505,8.504,8.505s8.504-3.808,8.504-8.505c0-0.129,0-0.258,0-0.387c0-1.986,1.989-3.355,3.846-2.647
	c9.206,3.515,16.478,10.787,19.993,19.993c0.709,1.855-0.662,3.846-2.648,3.846c-0.129,0-0.258,0-0.387,0
	c-4.696,0-8.504,3.808-8.504,8.504c0,4.697,3.808,8.504,8.504,8.504c0.129,0,0.258,0,0.387,0c1.986,0,3.357,1.99,2.648,3.846
	c-3.516,9.207-10.787,16.479-19.993,19.994c-1.856,0.708-3.846-0.662-3.846-2.648c0-0.129,0-0.258,0-0.387
	c0-4.697-3.808-8.504-8.504-8.504s-8.504,3.807-8.504,8.504c0,0.129,0,0.258,0,0.387c0,1.986-1.99,3.356-3.847,2.648
	c-9.205-3.516-16.478-10.787-19.992-19.994c-0.709-1.855,0.661-3.846,2.647-3.846c0.129,0,0.258,0,0.387,0
	c4.697,0,8.505-3.807,8.505-8.504c0-4.696-3.808-8.504-8.505-8.504c-0.129,0-0.258,0-0.387,0c-1.986,0-3.356-1.99-2.647-3.846
	c3.515-9.206,10.787-16.479,19.992-19.993c1.856-0.708,3.847,0.661,3.847,2.647C178.633,507.267,178.633,507.396,178.633,507.524z"
	/>
<circle fill="none" stroke="#231815" stroke-linecap="round" stroke-linejoin="round" cx="187.136" cy="507.524" r="4.536"/>
<circle fill="none" stroke="#231815" stroke-linecap="round" stroke-linejoin="round" cx="157.829" cy="536.833" r="4.536"/>
<circle fill="none" stroke="#231815" stroke-linecap="round" stroke-linejoin="round" cx="187.136" cy="566.142" r="4.536"/>
<circle fill="none" stroke="#231815" stroke-linecap="round" stroke-linejoin="round" cx="216.444" cy="536.833" r="4.535"/>
<polygon fill="none" stroke="#231815" stroke-linecap="round" stroke-linejoin="round" points="224.948,491.935 224.948,522.66 
	232.035,522.66 232.035,551.007 224.948,551.007 224.948,581.731 201.31,581.731 201.31,574.646 172.963,574.646 172.963,581.731 
	149.324,581.731 149.324,551.007 142.238,551.007 142.238,522.66 149.324,522.66 149.324,491.935 "/>
<path fill="none" stroke="#231815" stroke-linecap="round" stroke-linejoin="round" d="M74.662,507.524
	c0,4.697,3.808,8.505,8.504,8.505s8.504-3.808,8.504-8.505c0-0.129,0-0.258,0-0.387c0-1.986,1.99-3.355,3.846-2.647
	c9.206,3.515,16.479,10.787,19.993,19.993c0.709,1.855-0.661,3.846-2.647,3.846c-0.129,0-0.258,0-0.388,0
	c-4.696,0-8.504,3.808-8.504,8.504c0,4.697,3.808,8.504,8.504,8.504c0.13,0,0.259,0,0.388,0c1.986,0,3.356,1.99,2.647,3.846
	c-3.515,9.207-10.787,16.479-19.993,19.994c-1.855,0.708-3.846-0.662-3.846-2.648c0-0.129,0-0.258,0-0.387
	c0-4.697-3.808-8.504-8.504-8.504s-8.504,3.807-8.504,8.504c0,0.129,0,0.258,0,0.387c0,1.986-1.99,3.356-3.846,2.648
	c-9.206-3.516-16.478-10.787-19.993-19.994c-0.709-1.855,0.662-3.846,2.648-3.846c0.129,0,0.258,0,0.387,0
	c4.696,0,8.504-3.807,8.504-8.504c0-4.696-3.808-8.504-8.504-8.504c-0.129,0-0.258,0-0.387,0c-1.986,0-3.357-1.99-2.648-3.846
	c3.516-9.206,10.787-16.479,19.993-19.993c1.855-0.708,3.846,0.661,3.846,2.647C74.662,507.267,74.662,507.396,74.662,507.524z"/>
<circle fill="none" stroke="#231815" stroke-linecap="round" stroke-linejoin="round" cx="83.167" cy="507.524" r="4.536"/>
<circle fill="none" stroke="#231815" stroke-linecap="round" stroke-linejoin="round" cx="53.858" cy="536.833" r="4.535"/>
<circle fill="none" stroke="#231815" stroke-linecap="round" stroke-linejoin="round" cx="83.167" cy="566.142" r="4.536"/>
<circle fill="none" stroke="#231815" stroke-linecap="round" stroke-linejoin="round" cx="112.474" cy="536.833" r="4.536"/>
<polygon fill="none" stroke="#231815" stroke-linecap="round" stroke-linejoin="round" points="120.978,491.935 120.978,522.66 
	128.064,522.66 128.064,551.007 120.978,551.007 120.978,581.731 97.339,581.731 97.339,574.646 68.993,574.646 68.993,581.731 
	45.354,581.731 45.354,551.007 38.268,551.007 38.268,522.66 45.354,522.66 45.354,491.935 "/>
<circle fill="none" stroke="#231815" stroke-linecap="round" stroke-linejoin="round" cx="131.355" cy="422.817" r="4.536"/>
<circle fill="none" stroke="#231815" stroke-linecap="round" stroke-linejoin="round" cx="102.047" cy="452.126" r="4.536"/>
<circle fill="none" stroke="#231815" stroke-linecap="round" stroke-linejoin="round" cx="72.739" cy="422.817" r="4.535"/>
<circle fill="none" stroke="#231815" stroke-linecap="round" stroke-linejoin="round" cx="102.047" cy="393.51" r="4.536"/>
<path fill="none" stroke="#231815" stroke-linecap="round" stroke-linejoin="round" d="M93.543,393.51
	c0,4.696,3.808,8.504,8.505,8.504c4.696,0,8.504-3.808,8.504-8.504c0-0.129,0-0.258,0-0.388c0-1.986,1.989-3.356,3.846-2.647
	c9.206,3.515,16.478,10.787,19.993,19.993c0.708,1.855-0.662,3.846-2.648,3.846c-0.129,0-0.258,0-0.387,0
	c-4.696,0-8.504,3.808-8.504,8.504s3.808,8.504,8.504,8.504c0.129,0,0.258,0,0.387,0c1.986,0,3.356,1.99,2.648,3.846
	c-3.516,9.206-10.787,16.479-19.993,19.994c-1.856,0.708-3.846-0.662-3.846-2.648c0-0.129,0-0.258,0-0.387
	c0-4.697-3.808-8.505-8.504-8.505c-4.697,0-8.505,3.808-8.505,8.505c0,0.129,0,0.258,0,0.387c0,1.986-1.989,3.356-3.846,2.648
	c-9.206-3.516-16.478-10.788-19.993-19.994c-0.709-1.855,0.662-3.846,2.648-3.846c0.129,0,0.258,0,0.387,0
	c4.696,0,8.504-3.808,8.504-8.504s-3.808-8.504-8.504-8.504c-0.129,0-0.258,0-0.387,0c-1.986,0-3.357-1.99-2.648-3.846
	c3.516-9.206,10.787-16.479,19.993-19.993c1.856-0.709,3.846,0.661,3.846,2.647C93.543,393.252,93.543,393.381,93.543,393.51z"/>
<circle fill="none" stroke="#231815" stroke-linecap="round" stroke-linejoin="round" cx="188.503" cy="268.992" r="4.535"/>
<circle fill="none" stroke="#231815" stroke-linecap="round" stroke-linejoin="round" cx="188.503" cy="328.521" r="4.535"/>
<circle fill="none" stroke="#231815" stroke-linecap="round" stroke-linejoin="round" cx="188.503" cy="298.757" r="14.173"/>
<polygon fill="none" stroke="#231815" stroke-linecap="round" stroke-linejoin="round" points="38.267,353.7 59.526,353.7 
	59.526,346.613 87.873,346.613 87.873,353.7 116.22,353.7 116.22,346.613 144.566,346.613 144.566,353.7 172.913,353.7 
	172.913,346.613 201.259,346.613 201.259,353.7 222.519,353.7 222.519,254.487 38.267,254.487 38.267,286.378 45.354,286.378 
	45.354,314.724 38.267,314.724 "/>
<polygon fill="none" stroke="#231815" stroke-linecap="round" stroke-linejoin="round" points="38.267,240.314 59.526,240.314 
	59.526,233.228 87.873,233.228 87.873,240.314 116.22,240.314 116.22,233.228 144.566,233.228 144.566,240.314 172.913,240.314 
	172.913,233.228 201.259,233.228 201.259,240.314 222.519,240.314 222.519,141.102 38.267,141.102 38.267,172.992 45.354,172.992 
	45.354,201.338 38.267,201.338 "/>
<circle fill="none" stroke="#231815" stroke-linecap="round" stroke-linejoin="round" cx="188.503" cy="185.371" r="4.819"/>
<polygon fill="none" stroke="#231815" stroke-linecap="round" stroke-linejoin="round" points="605.197,354.205 605.197,384.931 
	576.851,384.931 576.851,377.843 548.505,377.843 548.505,384.931 520.158,384.931 520.158,377.843 491.812,377.843 
	491.812,384.931 463.466,384.931 463.466,377.843 435.118,377.843 435.118,384.931 406.772,384.931 406.772,377.843 
	378.426,377.843 378.426,384.931 350.079,384.931 350.079,377.843 321.733,377.843 321.733,384.931 293.387,384.931 
	293.387,377.843 265.04,377.843 265.04,384.931 236.693,384.931 236.693,354.205 243.78,354.205 243.78,325.859 236.693,325.859 
	236.693,295.134 605.197,295.134 605.197,325.859 598.11,325.859 598.11,354.205 "/>
<polygon fill="none" stroke="#231815" stroke-linecap="round" stroke-linejoin="round" points="605.197,458.175 605.197,488.901 
	576.851,488.901 576.851,481.814 548.505,481.814 548.505,488.901 520.158,488.901 520.158,481.814 491.812,481.814 
	491.812,488.901 463.466,488.901 463.466,481.814 435.118,481.814 435.118,488.901 406.772,488.901 406.772,481.814 
	378.426,481.814 378.426,488.901 350.079,488.901 350.079,481.814 321.733,481.814 321.733,488.901 293.387,488.901 
	293.387,481.814 265.04,481.814 265.04,488.901 236.693,488.901 236.693,458.175 243.78,458.175 243.78,429.83 236.693,429.83 
	236.693,399.104 605.197,399.104 605.197,429.83 598.11,429.83 598.11,458.175 "/>
<polygon fill="none" stroke="#231815" stroke-linecap="round" stroke-linejoin="round" points="626.823,459.999 626.823,481.259 
	650.462,481.259 650.462,488.346 678.809,488.346 678.809,481.259 702.447,481.259 702.447,459.999 709.533,459.999 
	709.533,431.652 702.447,431.652 702.447,403.306 709.533,403.306 709.533,374.96 702.447,374.96 702.447,346.613 709.533,346.613 
	709.533,318.267 702.447,318.267 702.447,289.921 709.533,289.921 709.533,261.573 702.447,261.573 702.447,233.228 
	709.533,233.228 709.533,204.881 702.447,204.881 702.447,176.534 709.533,176.534 709.533,148.188 702.447,148.188 
	702.447,126.929 678.809,126.929 678.809,119.842 650.462,119.842 650.462,126.929 626.823,126.929 626.823,148.188 
	619.736,148.188 619.736,176.534 626.823,176.534 626.823,204.881 619.736,204.881 619.736,233.228 626.823,233.228 
	626.823,261.573 619.736,261.573 619.736,289.921 626.823,289.921 626.823,318.267 619.736,318.267 619.736,346.613 
	626.823,346.613 626.823,374.96 619.736,374.96 619.736,403.306 626.823,403.306 626.823,431.652 619.736,431.652 619.736,459.999 
	"/>
<rect x="131.808" y="463.588" fill="none" stroke="#231815" stroke-linecap="round" stroke-linejoin="round" width="28.347" height="7.087"/>
<rect x="75.114" y="463.588" fill="none" stroke="#231815" stroke-linecap="round" stroke-linejoin="round" width="28.347" height="7.087"/>
<rect x="75.114" y="374.96" fill="none" stroke="#231815" stroke-linecap="round" stroke-linejoin="round" width="28.347" height="7.087"/>
<polygon fill="none" stroke="#231815" stroke-linecap="round" stroke-linejoin="round" points="197.001,380.298 189.914,380.298 
	189.914,367.874 45.354,367.874 45.354,380.298 38.268,380.298 38.268,408.645 45.354,408.645 45.354,436.991 38.268,436.991 
	38.268,465.337 45.354,465.337 45.354,477.761 189.914,477.761 189.914,465.337 197.001,465.337 197.001,436.991 189.914,436.991 
	189.914,408.645 197.001,408.645 "/>
<rect x="131.808" y="374.96" fill="none" stroke="#231815" stroke-linecap="round" stroke-linejoin="round" width="28.347" height="7.087"/>
<polygon fill="none" stroke="#231815" stroke-linecap="round" stroke-linejoin="round" points="20.126,119.842 20.126,84.412 
	27.213,84.412 27.213,56.065 20.126,56.065 20.126,20.635 41.386,20.635 41.386,13.549 69.732,13.549 69.732,20.635 98.079,20.635 
	98.079,13.549 126.425,13.549 126.425,20.635 154.772,20.635 154.772,13.549 183.118,13.549 183.118,20.635 204.378,20.635 
	204.378,119.842 183.118,119.842 183.118,126.929 154.772,126.929 154.772,119.842 126.425,119.842 126.425,126.929 98.079,126.929 
	98.079,119.842 69.732,119.842 69.732,126.929 41.386,126.929 41.386,119.842 "/>
<path fill="none" stroke="#231815" stroke-linecap="round" stroke-linejoin="round" d="M170.93,78.466c0-5.48,0-10.96,0-16.441
	c4.062,0,8.126,0,12.188,0c3.287,0,5.953-2.665,5.953-5.953s-2.666-5.953-5.953-5.953c-4.062,0-8.126,0-12.188,0
	c0-3.401,0-6.803,0-10.204c-39.118,0-78.236,0-117.354,0c0,3.401,0,6.803,0,10.204c-4.063,0-8.126,0-12.189,0
	c-3.287,0-5.952,2.666-5.952,5.953s2.665,5.953,5.952,5.953c4.063,0,8.126,0,12.189,0c0,5.48,0,10.96,0,16.441
	c-4.063,0-8.126,0-12.189,0c-3.287,0-5.952,2.665-5.952,5.953c0,3.287,2.665,5.952,5.952,5.952c4.063,0,8.126,0,12.189,0
	c0,3.402,0,6.804,0,10.205c39.118,0,78.236,0,117.354,0c0-3.401,0-6.803,0-10.205c4.062,0,8.126,0,12.188,0
	c3.287,0,5.953-2.665,5.953-5.952c0-3.288-2.666-5.953-5.953-5.953C179.056,78.466,174.992,78.466,170.93,78.466z"/>
<polygon fill="none" stroke="#231815" stroke-linecap="round" stroke-linejoin="round" points="472.931,141.108 472.931,13.549 
	451.695,13.549 451.695,20.636 423.349,20.636 423.349,13.549 395.002,13.549 395.002,20.636 366.656,20.636 366.656,13.549 
	338.31,13.549 338.31,20.636 309.963,20.636 309.963,13.549 281.616,13.549 281.616,20.636 253.27,20.636 253.27,13.549 
	232.035,13.549 232.035,141.108 253.27,141.108 253.27,134.021 281.616,134.021 281.616,141.108 309.963,141.108 309.963,134.021 
	338.31,134.021 338.31,141.108 366.656,141.108 366.656,134.021 395.002,134.021 395.002,141.108 423.349,141.108 423.349,134.021 
	451.695,134.021 451.695,141.108 "/>
<polygon fill="none" stroke="#231815" stroke-linecap="round" stroke-linejoin="round" points="472.932,281.385 472.932,153.826 
	451.696,153.826 451.696,160.913 423.35,160.913 423.35,153.826 395.003,153.826 395.003,160.913 366.656,160.913 366.656,153.826 
	338.311,153.826 338.311,160.913 309.964,160.913 309.964,153.826 281.617,153.826 281.617,160.913 253.271,160.913 
	253.271,153.826 232.035,153.826 232.035,281.385 253.271,281.385 253.271,274.298 281.617,274.298 281.617,281.385 
	309.964,281.385 309.964,274.298 338.311,274.298 338.311,281.385 366.656,281.385 366.656,274.298 395.003,274.298 
	395.003,281.385 423.35,281.385 423.35,274.298 451.696,274.298 451.696,281.385 "/>
</svg>
