<?xml version="1.0" encoding="utf-8"?>
<!-- Generator: Adobe Illustrator 16.0.4, SVG Export Plug-In . SVG Version: 6.00 Build 0)  -->
<!DOCTYPE svg PUBLIC "-//W3C//DTD SVG 1.1//EN" "http://www.w3.org/Graphics/SVG/1.1/DTD/svg11.dtd">
<svg version="1.1" id="レイヤー_1" xmlns="http://www.w3.org/2000/svg" xmlns:xlink="http://www.w3.org/1999/xlink" x="0px"
	 y="0px" width="841.89px" height="595.28px" viewBox="0 0 841.89 595.28" enable-background="new 0 0 841.89 595.28"
	 xml:space="preserve">
<path fill="none" stroke="#231815" stroke-linecap="round" stroke-linejoin="round" d="M681.451,62.681c-5.908,0-11.816,0-17.725,0
	c0-4.698,0-9.397,0-14.097c0-14.08-11.414-25.494-25.494-25.494c-14.081,0-25.495,11.414-25.495,25.494c0,4.704,0,9.408,0,14.112
	c-20.787,0.006-41.575,0.013-62.362,0.019c0-4.71,0-9.421,0-14.131c0-14.08-11.414-25.494-25.494-25.495
	c-14.08,0-25.494,11.415-25.494,25.495c-0.008,4.715-0.016,9.431-0.022,14.146c-1.9,1.899-3.801,3.799-5.7,5.698
	c-0.001,51.472-0.001,102.943-0.001,154.415c1.899,1.9,3.8,3.8,5.699,5.699c30.227,0.001,60.453,0.001,90.68,0.001
	c41.091-14.646,82.182-29.293,123.272-43.94c0-38.725,0-77.449,0-116.173c-1.883-1.917-3.766-3.833-5.648-5.75
	c-6.376,0-12.752,0-19.127,0c0,6.155,0,12.312,0,18.467c-2.363,0-4.725,0-7.088,0C681.451,74.993,681.451,68.836,681.451,62.681z"/>
<path fill="none" stroke="#231815" stroke-linecap="round" stroke-linejoin="round" d="M617.49,345.919c2.362,0,4.725,0,7.087,0
	c0,6.156,0,12.312,0,18.467c5.909,0,11.817,0,17.726,0c0,4.699,0,9.398,0,14.098c0,14.08,11.414,25.494,25.494,25.494
	s25.494-11.414,25.494-25.494c0-4.705,0-9.408,0-14.113c37.791-0.01,75.582-0.021,113.374-0.033c1.899-1.9,3.8-3.799,5.7-5.699
	c0-51.471,0-102.943,0-154.415c-1.899-1.899-3.799-3.8-5.699-5.699c-30.227,0-60.453,0-90.679-0.001
	c-41.091,14.647-82.183,29.294-123.273,43.94c0,38.725,0,77.45,0,116.174c1.883,1.916,3.766,3.832,5.649,5.748
	c6.375,0,12.751,0,19.127,0C617.49,358.231,617.49,352.075,617.49,345.919z"/>
<rect x="189.678" y="204.409" fill="none" stroke="#231815" stroke-linecap="round" stroke-linejoin="round" width="28.347" height="7.087"/>
<rect x="132.985" y="204.409" fill="none" stroke="#231815" stroke-linecap="round" stroke-linejoin="round" width="28.348" height="7.087"/>
<polygon fill="none" stroke="#231815" stroke-linecap="round" stroke-linejoin="round" points="72.053,211.496 72.053,288.927 
	269.007,485.886 289.053,485.886 361.187,413.702 361.187,393.706 278.956,311.473 278.957,211.496 246.372,211.496 
	246.372,204.409 278.957,204.409 278.957,190.236 72.053,190.236 72.053,204.409 104.639,204.409 104.639,211.496 "/>
<path fill="none" stroke="#231815" stroke-linecap="round" stroke-linejoin="round" d="M134.911,311.963
	c-2.092,2.092-4.184,4.183-6.276,6.274c44.275,44.292,88.552,88.585,132.826,132.878c2.083-2.08,4.165-4.162,6.247-6.244
	c2.941,2.943,5.882,5.885,8.822,8.826c2.878,2.879,7.545,2.881,10.423,0.002c2.879-2.877,2.88-7.543,0.003-10.422
	c-2.941-2.943-5.882-5.885-8.822-8.826c10.559-10.555,21.118-21.109,31.677-31.666c2.941,2.943,5.882,5.885,8.823,8.826
	c2.877,2.879,7.543,2.881,10.422,0.002c2.879-2.877,2.88-7.543,0.002-10.422c-2.94-2.943-5.881-5.885-8.822-8.826
	c2.083-2.082,4.165-4.164,6.248-6.244c-44.275-44.293-88.551-88.586-132.827-132.88c-2.092,2.092-4.185,4.183-6.276,6.274
	c-3.561-3.562-7.121-7.124-10.683-10.687c-2.894-2.845-7.542-2.815-10.399,0.066c-2.857,2.881-2.848,7.53,0.021,10.399
	c3.546,3.547,7.091,7.095,10.637,10.642c-10.54,10.535-21.079,21.07-31.618,31.606c-3.547-3.548-7.092-7.095-10.638-10.642
	c-2.868-2.87-7.518-2.881-10.399-0.024c-2.883,2.855-2.914,7.505-0.07,10.399C127.79,304.839,131.35,308.402,134.911,311.963z"/>
<path fill="none" stroke="#231815" stroke-linecap="round" stroke-linejoin="round" d="M519.406,364.157
	c2.092-2.092,4.184-4.184,6.276-6.273c-44.275-44.294-88.551-88.587-132.826-132.88c-2.082,2.081-4.165,4.163-6.247,6.244
	c-2.94-2.941-5.882-5.884-8.822-8.825c-2.878-2.879-7.544-2.88-10.423-0.002c-2.879,2.877-2.88,7.544-0.002,10.423
	c2.94,2.941,5.881,5.884,8.822,8.825c-10.56,10.556-21.119,21.11-31.678,31.665c-2.941-2.941-5.882-5.884-8.822-8.825
	c-2.878-2.879-7.545-2.88-10.424-0.003c-2.878,2.878-2.879,7.545-0.002,10.423c2.941,2.942,5.882,5.885,8.822,8.826
	c-2.082,2.082-4.164,4.163-6.246,6.244c44.275,44.293,88.551,88.586,132.826,132.879c2.092-2.092,4.185-4.182,6.276-6.273
	c3.561,3.562,7.121,7.125,10.683,10.688c2.894,2.844,7.542,2.814,10.399-0.066c2.857-2.883,2.848-7.531-0.021-10.4
	c-3.546-3.547-7.091-7.094-10.637-10.641c10.54-10.537,21.079-21.072,31.618-31.607c3.546,3.547,7.092,7.094,10.638,10.641
	c2.868,2.871,7.518,2.881,10.399,0.025c2.883-2.855,2.914-7.504,0.07-10.4C526.527,371.282,522.966,367.72,519.406,364.157z"/>
<polygon fill="none" stroke="#231815" stroke-linecap="round" stroke-linejoin="round" points="582.262,464.624 582.263,387.192 
	385.309,190.236 365.263,190.236 293.129,262.418 293.129,282.416 375.361,364.647 375.36,464.624 407.945,464.624 407.945,471.712 
	375.36,471.712 375.36,485.886 582.262,485.886 582.262,471.712 549.677,471.712 549.677,464.624 "/>
<rect x="492.984" y="464.624" fill="none" stroke="#231815" stroke-linecap="round" stroke-linejoin="round" width="28.347" height="7.088"/>
<rect x="436.292" y="464.624" fill="none" stroke="#231815" stroke-linecap="round" stroke-linejoin="round" width="28.347" height="7.088"/>
<rect x="716.546" y="210.576" fill="none" stroke="#231815" stroke-linecap="round" stroke-linejoin="round" width="7.087" height="28.346"/>
<rect x="716.546" y="267.268" fill="none" stroke="#231815" stroke-linecap="round" stroke-linejoin="round" width="7.086" height="28.347"/>
<rect x="716.546" y="323.962" fill="none" stroke="#231815" stroke-linecap="round" stroke-linejoin="round" width="7.086" height="28.346"/>
<rect x="617.49" y="289.228" fill="none" stroke="#231815" stroke-linecap="round" stroke-linejoin="round" width="7.087" height="28.346"/>
<rect x="617.49" y="242.463" fill="none" stroke="#231815" stroke-linecap="round" stroke-linejoin="round" width="7.087" height="18.417"/>
<circle fill="none" stroke="#231815" stroke-linecap="round" stroke-linejoin="round" cx="667.797" cy="378.483" r="5.102"/>
<circle fill="none" stroke="#231815" stroke-linecap="round" stroke-linejoin="round" cx="524.88" cy="48.584" r="5.103"/>
<circle fill="none" stroke="#231815" stroke-linecap="round" stroke-linejoin="round" cx="638.231" cy="48.584" r="5.103"/>
<rect x="681.451" y="109.495" fill="none" stroke="#231815" stroke-linecap="round" stroke-linejoin="round" width="7.087" height="28.346"/>
<rect x="681.451" y="166.187" fill="none" stroke="#231815" stroke-linecap="round" stroke-linejoin="round" width="7.087" height="18.417"/>
<rect x="582.395" y="188.146" fill="none" stroke="#231815" stroke-linecap="round" stroke-linejoin="round" width="7.087" height="28.346"/>
<rect x="582.395" y="131.453" fill="none" stroke="#231815" stroke-linecap="round" stroke-linejoin="round" width="7.087" height="28.347"/>
<rect x="582.395" y="74.76" fill="none" stroke="#231815" stroke-linecap="round" stroke-linejoin="round" width="7.087" height="28.346"/>
</svg>
