<?xml version="1.0" encoding="utf-8"?>
<!-- Generator: Adobe Illustrator 16.0.4, SVG Export Plug-In . SVG Version: 6.00 Build 0)  -->
<!DOCTYPE svg PUBLIC "-//W3C//DTD SVG 1.1//EN" "http://www.w3.org/Graphics/SVG/1.1/DTD/svg11.dtd">
<svg version="1.1" id="レイヤー_1" xmlns="http://www.w3.org/2000/svg" xmlns:xlink="http://www.w3.org/1999/xlink" x="0px"
	 y="0px" width="841.89px" height="595.28px" viewBox="0 0 841.89 595.28" enable-background="new 0 0 841.89 595.28"
	 xml:space="preserve">
<circle fill="none" stroke="#231815" stroke-linecap="round" stroke-linejoin="round" cx="594.975" cy="368.47" r="4.535"/>
<circle fill="none" stroke="#231815" stroke-linecap="round" stroke-linejoin="round" cx="565.668" cy="339.162" r="4.536"/>
<path fill="none" stroke="#231815" stroke-linecap="round" stroke-linejoin="round" d="M565.668,347.667
	c4.695,0,8.504-3.809,8.504-8.504c0-4.697-3.809-8.504-8.504-8.504c-0.129,0-0.258,0-0.387,0c-1.986,0-3.357-1.99-2.648-3.848
	c3.516-9.205,10.787-16.477,19.992-19.992c1.855-0.709,3.846,0.662,3.846,2.648c0,0.129,0,0.258,0,0.387
	c0,4.697,3.809,8.504,8.504,8.504c4.697,0,8.504-3.807,8.504-8.504c0-0.129,0-0.258,0-0.387c0-1.986,1.99-3.357,3.846-2.648
	c9.207,3.516,16.479,10.787,19.994,19.992c0.709,1.857-0.662,3.848-2.648,3.848c-0.129,0-0.258,0-0.387,0
	c-4.697,0-8.504,3.807-8.504,8.504c0,4.695,3.807,8.504,8.504,8.504c0.129,0,0.258,0,0.387,0c1.986,0,3.357,1.988,2.648,3.846
	c-3.516,9.205-10.787,16.477-19.994,19.992c-1.855,0.709-3.846-0.662-3.846-2.648c0-0.129,0-0.258,0-0.387
	c0-4.695-3.807-8.504-8.504-8.504c-4.695,0-8.504,3.809-8.504,8.504c0,0.129,0,0.258,0,0.387c0,1.986-1.99,3.357-3.846,2.648
	c-9.205-3.516-16.477-10.787-19.992-19.992c-0.709-1.857,0.662-3.846,2.648-3.846C565.41,347.667,565.539,347.667,565.668,347.667z"
	/>
<circle fill="none" stroke="#231815" stroke-linecap="round" stroke-linejoin="round" cx="594.975" cy="339.163" r="48.756"/>
<polygon fill="none" stroke="#231815" stroke-linecap="round" stroke-linejoin="round" points="524.112,280.731 513.547,280.731 
	513.547,315.611 501.496,315.611 501.496,322.698 473.148,322.698 473.148,315.611 444.803,315.611 444.803,322.698 
	416.456,322.698 416.456,315.611 388.109,315.611 388.109,322.698 359.764,322.698 359.764,315.314 347.709,315.315 
	347.709,184.934 359.764,184.935 359.764,177.848 388.109,177.848 388.109,184.935 416.456,184.935 416.456,177.848 
	444.803,177.848 444.803,184.935 473.148,184.935 473.148,177.848 501.496,177.848 501.496,184.921 513.547,184.921 
	513.547,219.801 524.112,219.801 "/>
<polygon fill="none" stroke="#231815" stroke-linecap="round" stroke-linejoin="round" points="14.784,103.215 159.352,103.215 
	159.352,121.682 152.265,121.682 152.265,150.027 159.352,150.027 159.352,178.375 152.265,178.375 152.265,206.721 
	159.352,206.721 159.352,225.137 14.784,225.137 14.784,206.721 21.871,206.721 21.871,178.375 14.784,178.375 14.784,150.027 
	21.871,150.027 21.871,121.682 14.784,121.682 "/>
<circle fill="none" stroke="#231815" stroke-linecap="round" stroke-linejoin="round" cx="87.068" cy="164.176" r="42.52"/>
<path fill="none" stroke="#231815" stroke-linecap="round" stroke-linejoin="round" d="M120.403,62.991
	c4.696,0,8.504-3.808,8.504-8.504c0-4.697-3.808-8.504-8.504-8.504c-0.129,0-0.258,0-0.387,0c-1.986,0-3.356-1.99-2.648-3.847
	c3.516-9.206,10.787-16.478,19.993-19.993c1.855-0.708,3.846,0.662,3.846,2.648c0,0.129,0,0.258,0,0.387
	c0,4.697,3.808,8.504,8.504,8.504c4.697,0,8.504-3.807,8.504-8.504c0-0.129,0-0.258,0-0.387c0-1.986,1.99-3.356,3.846-2.648
	c9.207,3.516,16.479,10.787,19.994,19.993c0.709,1.856-0.662,3.847-2.648,3.847c-0.129,0-0.258,0-0.387,0
	c-4.697,0-8.504,3.807-8.504,8.504c0,4.696,3.807,8.504,8.504,8.504c0.129,0,0.258,0,0.387,0c1.986,0,3.357,1.99,2.648,3.846
	c-3.516,9.206-10.787,16.478-19.994,19.993c-1.855,0.708-3.846-0.662-3.846-2.648c0-0.129,0-0.258,0-0.387
	c0-4.696-3.807-8.504-8.504-8.504c-4.696,0-8.504,3.808-8.504,8.504c0,0.129,0,0.258,0,0.387c0,1.986-1.99,3.356-3.846,2.648
	c-9.206-3.516-16.478-10.787-19.993-19.993c-0.708-1.855,0.662-3.846,2.648-3.846C120.146,62.991,120.274,62.991,120.403,62.991z"/>
<circle fill="none" stroke="#231815" stroke-linecap="round" stroke-linejoin="round" cx="120.403" cy="54.487" r="4.536"/>
<circle fill="none" stroke="#231815" stroke-linecap="round" stroke-linejoin="round" cx="149.711" cy="83.795" r="4.535"/>
<circle fill="none" stroke="#231815" stroke-linecap="round" stroke-linejoin="round" cx="179.02" cy="54.487" r="4.536"/>
<circle fill="none" stroke="#231815" stroke-linecap="round" stroke-linejoin="round" cx="149.711" cy="25.179" r="4.536"/>
<circle fill="none" stroke="#231815" stroke-linecap="round" stroke-linejoin="round" cx="149.711" cy="54.487" r="41.953"/>
<circle fill="none" stroke="#231815" stroke-linecap="round" stroke-linejoin="round" cx="218.265" cy="119.712" r="17.008"/>
<circle fill="none" stroke="#231815" stroke-linecap="round" stroke-linejoin="round" cx="594.975" cy="309.854" r="4.535"/>
<circle fill="none" stroke="#231815" stroke-linecap="round" stroke-linejoin="round" cx="624.283" cy="339.162" r="4.536"/>
<path fill="none" stroke="#231815" stroke-linecap="round" stroke-linejoin="round" d="M184.03,346.248
	c-50.887,0-101.773,0-152.66,0c0-4.142,0-8.282,0-12.424c2.362,0,4.725,0,7.086,0c0-9.449,0-18.897,0-28.347
	c-2.361,0-4.724,0-7.086,0c0-9.449,0-18.897,0-28.347c2.362,0,4.725,0,7.086,0c0-9.448,0-18.897,0-28.347c-2.361,0-4.724,0-7.086,0
	c0-4.141,0-8.282,0-12.424c50.887,0,101.773,0,152.66,0c10.797,5.797,19.647,14.646,25.444,25.443c0,19.667,0,39.334,0,59.001
	C203.678,331.602,194.827,340.451,184.03,346.248z"/>
<circle fill="none" stroke="#231815" stroke-linecap="round" stroke-linejoin="round" cx="154.531" cy="290.786" r="4.819"/>
<rect x="50.863" y="332.075" fill="none" stroke="#231815" stroke-linecap="round" stroke-linejoin="round" width="28.347" height="7.086"/>
<rect x="50.863" y="243.447" fill="none" stroke="#231815" stroke-linecap="round" stroke-linejoin="round" width="28.347" height="7.087"/>
<path fill="none" stroke="#231815" stroke-linecap="round" stroke-linejoin="round" d="M223.647,337.595
	c0-50.887,0-101.773,0-152.661c4.142,0,8.283,0,12.425,0c0,2.362,0,4.725,0,7.087c9.448,0,18.897,0,28.347,0
	c0-2.362,0-4.725,0-7.087c9.449,0,18.897,0,28.347,0c0,2.362,0,4.725,0,7.087c9.448,0,18.896,0,28.346,0c0-2.362,0-4.725,0-7.087
	c4.142,0,8.283,0,12.424,0c0,50.888,0,101.774,0,152.661c-5.797,10.797-14.646,19.646-25.443,25.443c-19.667,0-39.333,0-59,0
	C238.295,357.241,229.444,348.392,223.647,337.595z"/>
<rect x="230.734" y="204.427" fill="none" stroke="#231815" stroke-linecap="round" stroke-linejoin="round" width="7.087" height="28.347"/>
<rect x="319.363" y="204.427" fill="none" stroke="#231815" stroke-linecap="round" stroke-linejoin="round" width="7.086" height="28.347"/>
<path fill="none" stroke="#231815" stroke-linecap="round" stroke-linejoin="round" d="M270.372,218.945c5.479,0,10.96,0,16.44,0
	c0-4.063,0-8.126,0-12.188c0-3.288,2.665-5.953,5.953-5.953c3.287,0,5.952,2.665,5.952,5.953c0,4.062,0,8.125,0,12.188
	c3.401,0,6.804,0,10.204,0c0,39.118,0,78.236,0,117.354c-3.4,0-6.803,0-10.204,0c0,4.062,0,8.126,0,12.189
	c0,3.287-2.665,5.952-5.952,5.952c-3.288,0-5.953-2.665-5.953-5.952c0-4.063,0-8.127,0-12.189c-5.48,0-10.961,0-16.44,0
	c0,4.062,0,8.126,0,12.189c0,3.287-2.666,5.952-5.953,5.952c-3.288,0-5.953-2.665-5.953-5.952c0-4.063,0-8.127,0-12.189
	c-3.401,0-6.803,0-10.205,0c0-39.118,0-78.236,0-117.354c3.402,0,6.804,0,10.205,0c0-4.063,0-8.126,0-12.188
	c0-3.288,2.665-5.953,5.953-5.953c3.287,0,5.953,2.665,5.953,5.953C270.372,210.819,270.372,214.882,270.372,218.945z"/>
<path fill="none" stroke="#231815" stroke-linecap="round" stroke-linejoin="round" d="M379.74,258.352c-3.939,0-7.878,0-11.816,0
	c-0.125,0-0.248,0-0.373,0c-3.287,0-5.953,2.665-5.953,5.953c0,3.287,2.666,5.952,5.953,5.952c4.062,0,8.126,0,12.189,0
	c0,3.397,0,6.795,0,10.191c39.242,0,78.484,0,117.727,0c0-3.396,0-6.794,0-10.191c3.938,0,7.877,0,11.816,0
	c3.287,0,5.953-2.665,5.953-5.952c0-3.288-2.666-5.953-5.953-5.953c-3.939,0-7.878,0-11.816,0c0-5.48,0-10.96,0-16.44
	c3.938,0,7.877,0,11.816,0c3.287,0,5.953-2.666,5.953-5.953s-2.666-5.953-5.953-5.953c-3.939,0-7.878,0-11.816,0
	c0-3.396,0-6.794,0-10.191c-39.242,0-78.484,0-117.727,0c0,3.397,0,6.795,0,10.191c-4.063,0-8.127,0-12.189,0
	c-3.287,0-5.953,2.666-5.953,5.953s2.666,5.953,5.953,5.953c0.125,0,0.248,0,0.373,0c3.938,0,7.877,0,11.816,0
	C379.74,247.392,379.74,252.871,379.74,258.352z"/>
<polygon fill="none" stroke="#231815" stroke-linecap="round" stroke-linejoin="round" points="644.578,244.61 644.578,276.501 
	545.372,276.5 545.372,244.61 538.285,244.61 538.285,216.264 545.372,216.264 545.372,184.374 580.803,184.374 580.803,177.288 
	609.148,177.288 609.148,184.374 644.578,184.374 644.578,216.264 651.666,216.264 651.666,244.61 "/>
<circle fill="none" stroke="#231815" stroke-linecap="round" stroke-linejoin="round" cx="562.346" cy="64.672" r="5.103"/>
<rect x="442.28" y="68.805" transform="matrix(-0.1411 0.99 -0.99 -0.1411 590.875 -346.6776)" fill="none" stroke="#231815" stroke-linecap="round" stroke-linejoin="round" width="7.088" height="28.347"/>
<rect x="386.155" y="60.809" transform="matrix(-0.141 0.99 -0.99 -0.141 518.8699 -300.2525)" fill="none" stroke="#231815" stroke-linecap="round" stroke-linejoin="round" width="7.086" height="28.346"/>
<rect x="330.028" y="52.813" transform="matrix(-0.141 0.99 -0.99 -0.141 446.9147 -253.8099)" fill="none" stroke="#231815" stroke-linecap="round" stroke-linejoin="round" width="7.086" height="28.347"/>
<rect x="277.422" y="48.875" transform="matrix(-0.1408 0.99 -0.99 -0.1408 379.4369 -210.2929)" fill="none" stroke="#231815" stroke-linecap="round" stroke-linejoin="round" width="7.086" height="21.235"/>
<rect x="494.887" y="79.853" transform="matrix(-0.141 0.99 -0.99 -0.141 658.2653 -390.2267)" fill="none" stroke="#231815" stroke-linecap="round" stroke-linejoin="round" width="7.086" height="21.236"/>
<rect x="492.922" y="26.536" fill="none" stroke="#231815" stroke-linecap="round" stroke-linejoin="round" width="21.235" height="7.087"/>
<rect x="273.261" y="26.536" fill="none" stroke="#231815" stroke-linecap="round" stroke-linejoin="round" width="21.235" height="7.087"/>
<rect x="322.843" y="26.536" fill="none" stroke="#231815" stroke-linecap="round" stroke-linejoin="round" width="28.347" height="7.087"/>
<rect x="379.535" y="26.536" fill="none" stroke="#231815" stroke-linecap="round" stroke-linejoin="round" width="28.348" height="7.087"/>
<rect x="436.229" y="26.537" fill="none" stroke="#231815" stroke-linecap="round" stroke-linejoin="round" width="28.347" height="7.087"/>
<circle fill="none" stroke="#231815" stroke-linecap="round" stroke-linejoin="round" cx="227.919" cy="37.205" r="4.536"/>
<path fill="none" stroke="#231815" stroke-linecap="round" stroke-linejoin="round" d="M562.347,20.21
	c-111.476,0-222.952-0.001-334.428-0.002c-9.387,0-16.996,7.609-16.996,16.996c0,2.548,0,5.096,0,7.643
	c0,8.465,6.229,15.64,14.609,16.828c109.849,15.62,219.698,31.241,329.546,46.861c25.645,4.249,49.449-14.312,51.581-40.218
	S588.34,20.21,562.347,20.21z"/>
<circle fill="none" stroke="#231815" stroke-linecap="round" stroke-linejoin="round" cx="242.316" cy="95.69" r="4.677"/>
<circle fill="none" stroke="#231815" stroke-linecap="round" stroke-linejoin="round" cx="194.242" cy="95.661" r="4.677"/>
<circle fill="none" stroke="#231815" stroke-linecap="round" stroke-linejoin="round" cx="194.213" cy="143.734" r="4.677"/>
<circle fill="none" stroke="#231815" stroke-linecap="round" stroke-linejoin="round" cx="242.287" cy="143.764" r="4.678"/>
<circle fill="none" stroke="#231815" stroke-linecap="round" stroke-linejoin="round" cx="218.265" cy="153.706" r="4.677"/>
<circle fill="none" stroke="#231815" stroke-linecap="round" stroke-linejoin="round" cx="218.265" cy="85.719" r="4.677"/>
<circle fill="none" stroke="#231815" stroke-linecap="round" stroke-linejoin="round" cx="184.271" cy="119.712" r="4.677"/>
<circle fill="none" stroke="#231815" stroke-linecap="round" stroke-linejoin="round" cx="252.258" cy="119.712" r="4.677"/>
<rect x="331.244" y="87.233" transform="matrix(0.1411 -0.99 0.99 0.1411 187.1533 418.5341)" fill="none" stroke="#231815" stroke-linecap="round" stroke-linejoin="round" width="7.087" height="28.347"/>
<rect x="387.37" y="95.229" transform="matrix(0.141 -0.99 0.99 0.141 227.4938 480.9885)" fill="none" stroke="#231815" stroke-linecap="round" stroke-linejoin="round" width="7.086" height="28.346"/>
<rect x="443.496" y="103.224" transform="matrix(0.141 -0.99 0.99 0.141 267.8007 543.4259)" fill="none" stroke="#231815" stroke-linecap="round" stroke-linejoin="round" width="7.087" height="28.347"/>
<rect x="496.103" y="114.274" transform="matrix(0.1411 -0.99 0.99 0.1411 305.4977 601.915)" fill="none" stroke="#231815" stroke-linecap="round" stroke-linejoin="round" width="7.087" height="21.236"/>
<rect x="278.637" y="83.295" transform="matrix(0.1411 -0.99 0.99 0.1411 149.3932 360.0204)" fill="none" stroke="#231815" stroke-linecap="round" stroke-linejoin="round" width="7.088" height="21.236"/>
<rect x="266.454" y="150.762" fill="none" stroke="#231815" stroke-linecap="round" stroke-linejoin="round" width="21.235" height="7.087"/>
<rect x="486.115" y="150.762" fill="none" stroke="#231815" stroke-linecap="round" stroke-linejoin="round" width="21.235" height="7.087"/>
<rect x="429.422" y="150.762" fill="none" stroke="#231815" stroke-linecap="round" stroke-linejoin="round" width="28.347" height="7.087"/>
<rect x="372.729" y="150.761" fill="none" stroke="#231815" stroke-linecap="round" stroke-linejoin="round" width="28.347" height="7.087"/>
<rect x="316.036" y="150.761" fill="none" stroke="#231815" stroke-linecap="round" stroke-linejoin="round" width="28.347" height="7.087"/>
<circle fill="none" stroke="#231815" stroke-linecap="round" stroke-linejoin="round" cx="552.693" cy="147.18" r="4.536"/>
<path fill="none" stroke="#231815" stroke-linecap="round" stroke-linejoin="round" d="M218.265,164.175
	c111.476,0,222.952,0.001,334.429,0.001c9.386,0,16.995-7.609,16.995-16.995c0-2.548,0.001-5.096,0.001-7.643
	c0-8.465-6.229-15.64-14.611-16.828C445.23,107.089,335.381,91.469,225.532,75.848c-25.645-4.249-49.448,14.312-51.58,40.219
	S192.271,164.175,218.265,164.175z"/>
</svg>
