<?xml version="1.0" encoding="utf-8"?>
<!-- Generator: Adobe Illustrator 16.0.4, SVG Export Plug-In . SVG Version: 6.00 Build 0)  -->
<!DOCTYPE svg PUBLIC "-//W3C//DTD SVG 1.1//EN" "http://www.w3.org/Graphics/SVG/1.1/DTD/svg11.dtd">
<svg version="1.1" id="レイヤー_1" xmlns="http://www.w3.org/2000/svg" xmlns:xlink="http://www.w3.org/1999/xlink" x="0px"
	 y="0px" width="841.891px" height="595.28px" viewBox="0 0 841.891 595.28" enable-background="new 0 0 841.891 595.28"
	 xml:space="preserve">
<polygon fill="none" stroke="#231815" stroke-linecap="round" stroke-linejoin="round" points="26.758,436.99 19.67,436.99 
	19.67,465.336 26.758,465.336 26.758,493.684 19.67,493.684 19.67,522.029 26.758,522.029 26.758,550.377 19.67,550.377 
	19.67,582.961 252.111,582.961 252.111,550.377 245.025,550.377 245.025,522.029 252.111,522.029 252.111,493.684 245.025,493.684 
	245.025,465.336 252.111,465.336 252.111,436.99 245.025,436.99 245.025,408.645 252.111,408.645 252.111,376.059 19.67,376.059 
	19.67,408.645 26.758,408.645 "/>
<polygon fill="none" stroke="#231815" stroke-linecap="round" stroke-linejoin="round" points="149.012,226.917 149.012,198.57 
	141.926,198.57 141.926,170.224 149.012,170.224 149.012,141.877 141.926,141.877 141.926,113.53 149.012,113.53 149.012,85.185 
	141.926,85.185 141.926,24.523 22.586,24.523 22.586,85.185 15.499,85.185 15.499,113.53 22.586,113.53 22.586,141.877 
	15.499,141.877 15.499,170.224 22.586,170.224 22.586,198.57 15.499,198.57 15.499,226.917 22.585,226.917 22.586,287.579 
	141.926,287.579 141.926,226.917 "/>
<polygon fill="none" stroke="#231815" stroke-linecap="round" stroke-linejoin="round" points="616.729,132.808 588.383,132.808 
	588.383,139.895 560.036,139.895 560.036,132.808 531.689,132.808 531.689,139.894 503.343,139.894 503.343,132.808 
	474.996,132.808 474.996,139.894 446.65,139.894 446.65,132.808 418.304,132.808 418.304,139.894 389.957,139.894 389.957,132.807 
	361.611,132.807 361.611,139.894 333.264,139.894 333.265,132.807 304.918,132.807 304.918,139.894 276.571,139.894 
	276.571,132.807 248.225,132.807 248.225,139.894 219.879,139.894 219.879,132.807 191.532,132.807 191.532,139.894 
	163.186,139.893 163.186,6.383 191.532,6.383 191.532,13.47 219.879,13.47 219.879,6.383 248.225,6.383 248.225,13.47 
	276.571,13.47 276.571,6.382 304.918,6.382 304.918,13.47 333.265,13.47 333.264,6.382 361.611,6.382 361.611,13.47 389.957,13.47 
	389.957,6.382 418.304,6.382 418.304,13.47 446.65,13.47 446.65,6.382 474.996,6.382 474.996,13.47 503.343,13.47 503.343,6.382 
	531.689,6.382 531.689,13.47 560.036,13.47 560.036,6.382 588.383,6.382 588.383,13.47 616.729,13.47 616.729,6.382 645.075,6.382 
	645.075,139.895 616.729,139.895 "/>
<polygon fill="none" stroke="#231815" stroke-linecap="round" stroke-linejoin="round" points="616.729,280.494 588.383,280.494 
	588.383,287.581 560.036,287.581 560.036,280.494 531.689,280.494 531.689,287.581 503.343,287.581 503.343,280.494 
	474.996,280.494 474.996,287.58 446.65,287.58 446.65,280.493 418.304,280.493 418.304,287.58 389.957,287.58 389.957,280.493 
	361.611,280.493 361.611,287.58 333.264,287.58 333.265,280.493 304.918,280.493 304.918,287.58 276.571,287.579 276.571,280.493 
	248.225,280.493 248.225,287.579 219.879,287.579 219.879,280.493 191.532,280.493 191.532,287.579 163.186,287.579 
	163.186,154.069 191.532,154.069 191.532,161.155 219.879,161.155 219.879,154.069 248.225,154.069 248.225,161.155 
	276.571,161.155 276.571,154.069 304.918,154.069 304.918,161.155 333.265,161.155 333.264,154.068 361.611,154.068 
	361.611,161.155 389.957,161.155 389.957,154.068 418.304,154.068 418.304,161.155 446.65,161.155 446.65,154.068 474.996,154.068 
	474.996,161.155 503.343,161.155 503.343,154.068 531.689,154.068 531.689,161.155 560.036,161.155 560.036,154.067 
	588.383,154.067 588.383,161.155 616.729,161.155 616.729,154.067 645.075,154.067 645.075,287.581 616.729,287.581 "/>
<polygon fill="none" stroke="#231815" stroke-linecap="round" stroke-linejoin="round" points="175.514,348.949 168.427,348.949 
	168.427,361.356 23.866,361.356 23.866,348.949 16.78,348.949 16.78,320.603 23.866,320.603 23.866,308.196 53.627,308.196 
	53.627,301.109 81.974,301.109 81.974,308.196 110.319,308.196 110.319,301.109 138.667,301.109 138.667,308.196 168.427,308.196 
	168.427,320.603 175.514,320.603 "/>
<polygon fill="none" stroke="#231815" stroke-linecap="round" stroke-linejoin="round" points="348.42,348.949 341.333,348.949 
	341.333,361.356 196.773,361.356 196.773,348.949 189.687,348.949 189.687,320.603 196.773,320.603 196.773,308.196 
	226.533,308.196 226.533,301.109 254.88,301.109 254.88,308.196 283.227,308.196 283.227,301.109 311.573,301.109 311.573,308.196 
	341.333,308.196 341.333,320.603 348.42,320.603 "/>
<circle fill="none" stroke="#231815" stroke-linecap="round" stroke-linejoin="round" cx="67.779" cy="451.541" r="5.953"/>
<circle fill="none" stroke="#231815" stroke-linecap="round" stroke-linejoin="round" cx="135.891" cy="569.512" r="5.953"/>
<circle fill="none" stroke="#231815" stroke-linecap="round" stroke-linejoin="round" cx="204.002" cy="451.541" r="5.953"/>
<path fill="none" stroke="#231815" stroke-linecap="round" stroke-linejoin="round" d="M127.67,402.781c5.48,0,10.961,0,16.441,0
	c0-4.062,0-8.125,0-12.188c0-3.289,2.666-5.953,5.953-5.953s5.953,2.664,5.953,5.953c0,4.062,0,8.125,0,12.188
	c3.4,0,6.803,0,10.203,0c0,39.119,0,78.236,0,117.355c-3.4,0-6.803,0-10.203,0c0,4.062,0,8.125,0,12.188
	c0,3.289-2.666,5.953-5.953,5.953s-5.953-2.664-5.953-5.953c0-4.062,0-8.125,0-12.188c-5.48,0-10.961,0-16.441,0
	c0,4.062,0,8.125,0,12.188c0,3.289-2.664,5.953-5.953,5.953c-3.287,0-5.951-2.664-5.951-5.953c0-4.062,0-8.125,0-12.188
	c-3.402,0-6.805,0-10.205,0c0-39.119,0-78.236,0-117.355c3.4,0,6.803,0,10.205,0c0-4.062,0-8.125,0-12.188
	c0-3.289,2.664-5.953,5.951-5.953c3.289,0,5.953,2.664,5.953,5.953C127.67,394.656,127.67,398.719,127.67,402.781z"/>
</svg>
